<svg width="1243" height="149" viewBox="0 0 1243 149" fill="none" xmlns="http://www.w3.org/2000/svg">
<g clip-path="url(#clip0_251_30102)">
<mask id="path-1-outside-1_251_30102" maskUnits="userSpaceOnUse" x="1208" y="3" width="32" height="142" fill="black">
<rect fill="white" x="1208" y="3" width="32" height="142"/>
<path d="M1235.5 131.026C1235.5 132.876 1235.18 134.474 1234.53 135.819C1233.88 137.165 1232.97 138.226 1231.81 139.004C1230.64 139.761 1229.27 140.202 1227.72 140.329L1227.46 136.166C1228.43 136.04 1229.25 135.767 1229.92 135.346C1230.6 134.905 1231.11 134.326 1231.47 133.612C1231.8 132.876 1231.97 131.993 1231.97 130.963C1231.97 130.08 1231.87 129.333 1231.66 128.724C1231.43 128.093 1231.1 127.62 1230.68 127.305C1230.24 126.968 1229.7 126.8 1229.07 126.8C1228.5 126.8 1228 126.937 1227.56 127.21C1227.1 127.483 1226.69 128.009 1226.33 128.787C1225.95 129.565 1225.58 130.721 1225.22 132.256C1224.8 134.106 1224.33 135.588 1223.81 136.702C1223.26 137.816 1222.59 138.626 1221.79 139.13C1220.97 139.635 1219.95 139.887 1218.73 139.887C1217.42 139.887 1216.28 139.561 1215.29 138.91C1214.28 138.258 1213.5 137.333 1212.96 136.134C1212.39 134.936 1212.11 133.496 1212.11 131.814C1212.11 130.027 1212.43 128.513 1213.08 127.273C1213.71 126.033 1214.59 125.055 1215.7 124.34C1216.81 123.626 1218.1 123.184 1219.55 123.016L1219.74 127.147C1218.92 127.252 1218.2 127.504 1217.59 127.904C1216.98 128.282 1216.51 128.808 1216.17 129.481C1215.82 130.132 1215.64 130.931 1215.64 131.877C1215.64 133.055 1215.91 133.99 1216.46 134.684C1216.98 135.357 1217.69 135.693 1218.57 135.693C1219.18 135.693 1219.68 135.556 1220.08 135.283C1220.48 134.989 1220.83 134.474 1221.12 133.738C1221.4 133.002 1221.69 131.972 1222.01 130.647C1222.43 128.65 1222.96 127.063 1223.62 125.886C1224.27 124.708 1225.02 123.867 1225.89 123.363C1226.75 122.858 1227.74 122.606 1228.85 122.606C1230.22 122.606 1231.4 122.953 1232.41 123.647C1233.4 124.34 1234.17 125.318 1234.72 126.579C1235.24 127.841 1235.5 129.323 1235.5 131.026ZM1235 115.04L1216.17 115.04L1216.17 121.851L1212.61 121.851L1212.61 104.16L1216.17 104.16L1216.17 110.94L1235 110.94L1235 115.04ZM1235.5 92.7763C1235.5 94.5844 1235.16 96.1716 1234.46 97.5382C1233.77 98.8837 1232.79 99.9243 1231.53 100.66C1230.25 101.375 1228.74 101.732 1226.99 101.732L1212.58 101.732L1212.58 97.6328L1226.99 97.6328C1228.57 97.6328 1229.79 97.2123 1230.65 96.3714C1231.51 95.5304 1231.94 94.3321 1231.94 92.7763C1231.94 91.2206 1231.51 90.0223 1230.65 89.1813C1229.79 88.3194 1228.57 87.8884 1226.99 87.8884L1212.58 87.8884L1212.58 83.7888L1226.99 83.7888C1228.74 83.7888 1230.25 84.1567 1231.53 84.8926C1232.79 85.6284 1233.77 86.669 1234.46 88.0145C1235.16 89.339 1235.5 90.9263 1235.5 92.7763ZM1235 78.7474L1212.61 78.7474L1212.61 71.3051C1212.61 67.7311 1213.59 64.9876 1215.54 63.0744C1217.48 61.1403 1220.24 60.1732 1223.84 60.1732C1227.41 60.1732 1230.16 61.1193 1232.1 63.0114C1234.03 64.9035 1235 67.605 1235 71.1159L1235 78.7474ZM1231.44 74.6478L1231.44 71.3051C1231.44 68.9715 1230.81 67.2371 1229.54 66.1018C1228.28 64.9665 1226.38 64.3989 1223.84 64.3989C1221.25 64.3989 1219.33 64.9665 1218.07 66.1018C1216.8 67.2371 1216.17 68.9715 1216.17 71.3051L1216.17 74.6478L1231.44 74.6478ZM1235 56.7898L1212.61 56.7898L1212.61 52.6903L1235 52.6903L1235 56.7898ZM1235.5 38.6441C1235.5 40.8515 1235.04 42.7541 1234.12 44.3519C1233.17 45.9497 1231.83 47.1796 1230.08 48.0415C1228.34 48.8825 1226.25 49.3029 1223.84 49.3029C1221.42 49.3029 1219.34 48.8825 1217.59 48.0415C1215.83 47.1796 1214.47 45.9497 1213.52 44.3519C1212.58 42.7541 1212.11 40.8515 1212.11 38.6441C1212.11 36.3945 1212.58 34.4814 1213.52 32.9047C1214.47 31.3069 1215.83 30.0875 1217.59 29.2466C1219.34 28.3846 1221.42 27.9536 1223.84 27.9536C1226.25 27.9536 1228.34 28.3846 1230.08 29.2466C1231.83 30.0875 1233.17 31.3069 1234.12 32.9047C1235.04 34.4814 1235.5 36.3945 1235.5 38.6441ZM1231.94 38.6441C1231.94 37.2775 1231.63 36.1212 1231 35.1752C1230.34 34.2081 1229.42 33.4723 1228.22 32.9677C1227 32.4421 1225.54 32.1793 1223.84 32.1793C1222.13 32.1793 1220.67 32.4421 1219.45 32.9677C1218.23 33.4723 1217.3 34.2081 1216.65 35.1752C1215.99 36.1212 1215.67 37.2775 1215.67 38.6441C1215.67 39.9685 1215.99 41.1143 1216.65 42.0814C1217.3 43.0485 1218.23 43.7948 1219.45 44.3204C1220.67 44.8249 1222.13 45.0772 1223.84 45.0772C1225.54 45.0772 1227 44.8249 1228.22 44.3204C1229.42 43.7948 1230.34 43.0485 1231 42.0814C1231.63 41.1143 1231.94 39.9685 1231.94 38.6441ZM1235.5 15.633C1235.5 17.4831 1235.18 19.0808 1234.53 20.4263C1233.88 21.7718 1232.97 22.8335 1231.81 23.6114C1230.64 24.3682 1229.27 24.8097 1227.72 24.9359L1227.46 20.7732C1228.43 20.6471 1229.25 20.3738 1229.92 19.9533C1230.6 19.5118 1231.11 18.9337 1231.47 18.2189C1231.8 17.4831 1231.97 16.6001 1231.97 15.5699C1231.97 14.687 1231.87 13.9406 1231.66 13.3309C1231.43 12.7002 1231.1 12.2272 1230.68 11.9119C1230.24 11.5755 1229.7 11.4073 1229.07 11.4073C1228.5 11.4073 1228 11.5439 1227.56 11.8173C1227.1 12.0906 1226.69 12.6161 1226.33 13.394C1225.95 14.1719 1225.58 15.3282 1225.22 16.8629C1224.8 18.7129 1224.33 20.1951 1223.81 21.3093C1223.26 22.4236 1222.59 23.233 1221.79 23.7375C1220.97 24.2421 1219.95 24.4944 1218.73 24.4944C1217.42 24.4944 1216.28 24.1685 1215.29 23.5168C1214.28 22.8651 1213.5 21.94 1212.96 20.7417C1212.39 19.5434 1212.11 18.1033 1212.11 16.4214C1212.11 14.6344 1212.43 13.1207 1213.08 11.8803C1213.71 10.6399 1214.59 9.66235 1215.7 8.94756C1216.81 8.23276 1218.1 7.79127 1219.55 7.62308L1219.74 11.7542C1218.92 11.8593 1218.2 12.1116 1217.59 12.511C1216.98 12.8894 1216.51 13.415 1216.17 14.0878C1215.82 14.7395 1215.64 15.5384 1215.64 16.4845C1215.64 17.6618 1215.91 18.5973 1216.46 19.2911C1216.98 19.9638 1217.69 20.3002 1218.57 20.3002C1219.18 20.3002 1219.68 20.1636 1220.08 19.8903C1220.48 19.5959 1220.83 19.0808 1221.12 18.345C1221.4 17.6092 1221.69 16.5791 1222.01 15.2546C1222.43 13.2574 1222.96 11.6701 1223.62 10.4928C1224.27 9.31547 1225.02 8.47453 1225.89 7.96997C1226.75 7.4654 1227.74 7.21312 1228.85 7.21312C1230.22 7.21312 1231.4 7.56001 1232.41 8.25378C1233.4 8.94756 1234.17 9.92515 1234.72 11.1866C1235.24 12.448 1235.5 13.9301 1235.5 15.633Z"/>
</mask>
<path d="M1235.5 131.026C1235.5 132.876 1235.18 134.474 1234.53 135.819C1233.88 137.165 1232.97 138.226 1231.81 139.004C1230.64 139.761 1229.27 140.202 1227.72 140.329L1227.46 136.166C1228.43 136.04 1229.25 135.767 1229.92 135.346C1230.6 134.905 1231.11 134.326 1231.47 133.612C1231.8 132.876 1231.97 131.993 1231.97 130.963C1231.97 130.08 1231.87 129.333 1231.66 128.724C1231.43 128.093 1231.1 127.62 1230.68 127.305C1230.24 126.968 1229.7 126.8 1229.07 126.8C1228.5 126.8 1228 126.937 1227.56 127.21C1227.1 127.483 1226.69 128.009 1226.33 128.787C1225.95 129.565 1225.58 130.721 1225.22 132.256C1224.8 134.106 1224.33 135.588 1223.81 136.702C1223.26 137.816 1222.59 138.626 1221.79 139.13C1220.97 139.635 1219.95 139.887 1218.73 139.887C1217.42 139.887 1216.28 139.561 1215.29 138.91C1214.28 138.258 1213.5 137.333 1212.96 136.134C1212.39 134.936 1212.11 133.496 1212.11 131.814C1212.11 130.027 1212.43 128.513 1213.08 127.273C1213.71 126.033 1214.59 125.055 1215.7 124.34C1216.81 123.626 1218.1 123.184 1219.55 123.016L1219.74 127.147C1218.92 127.252 1218.2 127.504 1217.59 127.904C1216.98 128.282 1216.51 128.808 1216.17 129.481C1215.82 130.132 1215.64 130.931 1215.64 131.877C1215.64 133.055 1215.91 133.99 1216.46 134.684C1216.98 135.357 1217.69 135.693 1218.57 135.693C1219.18 135.693 1219.68 135.556 1220.08 135.283C1220.48 134.989 1220.83 134.474 1221.12 133.738C1221.4 133.002 1221.69 131.972 1222.01 130.647C1222.43 128.65 1222.96 127.063 1223.62 125.886C1224.27 124.708 1225.02 123.867 1225.89 123.363C1226.75 122.858 1227.74 122.606 1228.85 122.606C1230.22 122.606 1231.4 122.953 1232.41 123.647C1233.4 124.34 1234.17 125.318 1234.72 126.579C1235.24 127.841 1235.5 129.323 1235.5 131.026ZM1235 115.04L1216.17 115.04L1216.17 121.851L1212.61 121.851L1212.61 104.16L1216.17 104.16L1216.17 110.94L1235 110.94L1235 115.04ZM1235.5 92.7763C1235.5 94.5844 1235.16 96.1716 1234.46 97.5382C1233.77 98.8837 1232.79 99.9243 1231.53 100.66C1230.25 101.375 1228.74 101.732 1226.99 101.732L1212.58 101.732L1212.58 97.6328L1226.99 97.6328C1228.57 97.6328 1229.79 97.2123 1230.65 96.3714C1231.51 95.5304 1231.94 94.3321 1231.94 92.7763C1231.94 91.2206 1231.51 90.0223 1230.65 89.1813C1229.79 88.3194 1228.57 87.8884 1226.99 87.8884L1212.58 87.8884L1212.58 83.7888L1226.99 83.7888C1228.74 83.7888 1230.25 84.1567 1231.53 84.8926C1232.79 85.6284 1233.77 86.669 1234.46 88.0145C1235.16 89.339 1235.5 90.9263 1235.5 92.7763ZM1235 78.7474L1212.61 78.7474L1212.61 71.3051C1212.61 67.7311 1213.59 64.9876 1215.54 63.0744C1217.48 61.1403 1220.24 60.1732 1223.84 60.1732C1227.41 60.1732 1230.16 61.1193 1232.1 63.0114C1234.03 64.9035 1235 67.605 1235 71.1159L1235 78.7474ZM1231.44 74.6478L1231.44 71.3051C1231.44 68.9715 1230.81 67.2371 1229.54 66.1018C1228.28 64.9665 1226.38 64.3989 1223.84 64.3989C1221.25 64.3989 1219.33 64.9665 1218.07 66.1018C1216.8 67.2371 1216.17 68.9715 1216.17 71.3051L1216.17 74.6478L1231.44 74.6478ZM1235 56.7898L1212.61 56.7898L1212.61 52.6903L1235 52.6903L1235 56.7898ZM1235.5 38.6441C1235.5 40.8515 1235.04 42.7541 1234.12 44.3519C1233.17 45.9497 1231.83 47.1796 1230.08 48.0415C1228.34 48.8825 1226.25 49.3029 1223.84 49.3029C1221.42 49.3029 1219.34 48.8825 1217.59 48.0415C1215.83 47.1796 1214.47 45.9497 1213.52 44.3519C1212.58 42.7541 1212.11 40.8515 1212.11 38.6441C1212.11 36.3945 1212.58 34.4814 1213.52 32.9047C1214.47 31.3069 1215.83 30.0875 1217.59 29.2466C1219.34 28.3846 1221.42 27.9536 1223.84 27.9536C1226.25 27.9536 1228.34 28.3846 1230.08 29.2466C1231.83 30.0875 1233.17 31.3069 1234.12 32.9047C1235.04 34.4814 1235.5 36.3945 1235.5 38.6441ZM1231.94 38.6441C1231.94 37.2775 1231.63 36.1212 1231 35.1752C1230.34 34.2081 1229.42 33.4723 1228.22 32.9677C1227 32.4421 1225.54 32.1793 1223.84 32.1793C1222.13 32.1793 1220.67 32.4421 1219.45 32.9677C1218.23 33.4723 1217.3 34.2081 1216.65 35.1752C1215.99 36.1212 1215.67 37.2775 1215.67 38.6441C1215.67 39.9685 1215.99 41.1143 1216.65 42.0814C1217.3 43.0485 1218.23 43.7948 1219.45 44.3204C1220.67 44.8249 1222.13 45.0772 1223.84 45.0772C1225.54 45.0772 1227 44.8249 1228.22 44.3204C1229.42 43.7948 1230.34 43.0485 1231 42.0814C1231.63 41.1143 1231.94 39.9685 1231.94 38.6441ZM1235.5 15.633C1235.5 17.4831 1235.18 19.0808 1234.53 20.4263C1233.88 21.7718 1232.97 22.8335 1231.81 23.6114C1230.64 24.3682 1229.27 24.8097 1227.72 24.9359L1227.46 20.7732C1228.43 20.6471 1229.25 20.3738 1229.92 19.9533C1230.6 19.5118 1231.11 18.9337 1231.47 18.2189C1231.8 17.4831 1231.97 16.6001 1231.97 15.5699C1231.97 14.687 1231.87 13.9406 1231.66 13.3309C1231.43 12.7002 1231.1 12.2272 1230.68 11.9119C1230.24 11.5755 1229.7 11.4073 1229.07 11.4073C1228.5 11.4073 1228 11.5439 1227.56 11.8173C1227.1 12.0906 1226.69 12.6161 1226.33 13.394C1225.95 14.1719 1225.58 15.3282 1225.22 16.8629C1224.8 18.7129 1224.33 20.1951 1223.81 21.3093C1223.26 22.4236 1222.59 23.233 1221.79 23.7375C1220.97 24.2421 1219.95 24.4944 1218.73 24.4944C1217.42 24.4944 1216.28 24.1685 1215.29 23.5168C1214.28 22.8651 1213.5 21.94 1212.96 20.7417C1212.39 19.5434 1212.11 18.1033 1212.11 16.4214C1212.11 14.6344 1212.43 13.1207 1213.08 11.8803C1213.71 10.6399 1214.59 9.66235 1215.7 8.94756C1216.81 8.23276 1218.1 7.79127 1219.55 7.62308L1219.74 11.7542C1218.92 11.8593 1218.2 12.1116 1217.59 12.511C1216.98 12.8894 1216.51 13.415 1216.17 14.0878C1215.82 14.7395 1215.64 15.5384 1215.64 16.4845C1215.64 17.6618 1215.91 18.5973 1216.46 19.2911C1216.98 19.9638 1217.69 20.3002 1218.57 20.3002C1219.18 20.3002 1219.68 20.1636 1220.08 19.8903C1220.48 19.5959 1220.83 19.0808 1221.12 18.345C1221.4 17.6092 1221.69 16.5791 1222.01 15.2546C1222.43 13.2574 1222.96 11.6701 1223.62 10.4928C1224.27 9.31547 1225.02 8.47453 1225.89 7.96997C1226.75 7.4654 1227.74 7.21312 1228.85 7.21312C1230.22 7.21312 1231.4 7.56001 1232.41 8.25378C1233.4 8.94756 1234.17 9.92515 1234.72 11.1866C1235.24 12.448 1235.5 13.9301 1235.5 15.633Z" fill="black"/>
<path d="M1234.53 135.819L1238.13 137.563L1238.13 137.563L1234.53 135.819ZM1231.81 139.004L1233.98 142.369L1234.01 142.346L1234.05 142.323L1231.81 139.004ZM1227.72 140.329L1223.72 140.571L1223.97 144.645L1228.04 144.316L1227.72 140.329ZM1227.46 136.166L1226.95 132.2L1223.24 132.682L1223.47 136.408L1227.46 136.166ZM1229.92 135.346L1232.04 138.738L1232.08 138.715L1232.12 138.69L1229.92 135.346ZM1231.47 133.612L1235.05 135.401L1235.08 135.338L1235.11 135.275L1231.47 133.612ZM1231.66 128.724L1235.44 127.42L1235.43 127.383L1235.41 127.347L1231.66 128.724ZM1230.68 127.305L1228.26 130.486L1228.27 130.496L1228.28 130.505L1230.68 127.305ZM1227.56 127.21L1229.59 130.654L1229.63 130.633L1229.66 130.611L1227.56 127.21ZM1226.33 128.787L1229.92 130.537L1229.94 130.497L1229.96 130.457L1226.33 128.787ZM1225.22 132.256L1221.33 131.348L1221.33 131.359L1221.32 131.369L1225.22 132.256ZM1223.81 136.702L1227.4 138.464L1227.41 138.436L1227.42 138.409L1223.81 136.702ZM1221.79 139.13L1223.88 142.537L1223.9 142.525L1223.92 142.512L1221.79 139.13ZM1215.29 138.91L1217.49 135.57L1217.48 135.56L1217.46 135.549L1215.29 138.91ZM1212.96 136.134L1216.6 134.474L1216.58 134.448L1216.57 134.422L1212.96 136.134ZM1213.08 127.273L1216.62 129.134L1216.64 129.11L1216.65 129.086L1213.08 127.273ZM1215.7 124.34L1217.86 127.707L1217.86 127.707L1215.7 124.34ZM1219.55 123.016L1223.54 122.833L1223.35 118.549L1219.09 119.042L1219.55 123.016ZM1219.74 127.147L1220.25 131.114L1223.9 130.646L1223.73 126.964L1219.74 127.147ZM1217.59 127.904L1219.7 131.302L1219.74 131.276L1219.78 131.25L1217.59 127.904ZM1216.17 129.481L1219.68 131.404L1219.72 131.337L1219.75 131.269L1216.17 129.481ZM1216.46 134.684L1219.61 132.221L1219.6 132.215L1219.6 132.208L1216.46 134.684ZM1220.08 135.283L1222.34 138.584L1222.4 138.545L1222.46 138.503L1220.08 135.283ZM1221.12 133.738L1224.84 135.223L1224.86 135.177L1224.87 135.131L1221.12 133.738ZM1222.01 130.647L1225.9 131.574L1225.91 131.523L1225.92 131.471L1222.01 130.647ZM1223.62 125.886L1220.12 123.948L1220.12 123.948L1223.62 125.886ZM1225.89 123.363L1227.91 126.815V126.815L1225.89 123.363ZM1232.41 123.647L1234.71 120.373L1234.7 120.362L1234.68 120.35L1232.41 123.647ZM1234.72 126.579L1238.41 125.041L1238.4 125.015L1238.39 124.989L1234.72 126.579ZM1235.5 131.026L1231.5 131.026C1231.5 132.412 1231.26 133.387 1230.93 134.075L1234.53 135.819L1238.13 137.563C1239.1 135.56 1239.5 133.34 1239.5 131.026L1235.5 131.026ZM1234.53 135.819L1230.93 134.075C1230.56 134.832 1230.11 135.331 1229.58 135.685L1231.81 139.004L1234.05 142.323C1235.83 141.122 1237.19 139.497 1238.13 137.563L1234.53 135.819ZM1231.81 139.004L1229.65 135.639C1229.09 136.001 1228.37 136.262 1227.39 136.342L1227.72 140.329L1228.04 144.316C1230.17 144.143 1232.19 143.521 1233.98 142.369L1231.81 139.004ZM1227.72 140.329L1231.71 140.087L1231.46 135.924L1227.46 136.166L1223.47 136.408L1223.72 140.571L1227.72 140.329ZM1227.46 136.166L1227.98 140.132C1229.39 139.949 1230.78 139.524 1232.04 138.738L1229.92 135.346L1227.8 131.954C1227.72 132.009 1227.47 132.131 1226.95 132.2L1227.46 136.166ZM1229.92 135.346L1232.12 138.69C1233.38 137.864 1234.37 136.751 1235.05 135.401L1231.47 133.612L1227.89 131.823C1227.85 131.902 1227.82 131.945 1227.73 132.002L1229.92 135.346ZM1231.47 133.612L1235.11 135.275C1235.74 133.895 1235.97 132.415 1235.97 130.963L1231.97 130.963L1227.97 130.963C1227.97 131.57 1227.87 131.857 1227.83 131.949L1231.47 133.612ZM1231.97 130.963L1235.97 130.963C1235.97 129.788 1235.84 128.572 1235.44 127.42L1231.66 128.724L1227.88 130.028C1227.9 130.095 1227.97 130.371 1227.97 130.963L1231.97 130.963ZM1231.66 128.724L1235.41 127.347C1234.99 126.19 1234.27 124.997 1233.08 124.105L1230.68 127.305L1228.28 130.505C1227.93 130.243 1227.86 129.996 1227.9 130.101L1231.66 128.724ZM1230.68 127.305L1233.1 124.123C1231.87 123.185 1230.45 122.8 1229.07 122.8L1229.07 126.8L1229.07 130.8C1229.03 130.8 1228.91 130.794 1228.75 130.743C1228.58 130.69 1228.41 130.603 1228.26 130.486L1230.68 127.305ZM1229.07 126.8L1229.07 122.8C1227.83 122.8 1226.58 123.108 1225.45 123.809L1227.56 127.21L1229.66 130.611C1229.55 130.68 1229.43 130.731 1229.31 130.763C1229.2 130.795 1229.11 130.8 1229.07 130.8L1229.07 126.8ZM1227.56 127.21L1225.52 123.766C1224.05 124.634 1223.21 126.003 1222.69 127.117L1226.33 128.787L1229.96 130.457C1230.05 130.274 1230.09 130.231 1230.06 130.269C1230.03 130.31 1229.88 130.482 1229.59 130.654L1227.56 127.21ZM1226.33 128.787L1222.73 127.037C1222.16 128.219 1221.71 129.719 1221.33 131.348L1225.22 132.256L1229.12 133.163C1229.46 131.723 1229.74 130.911 1229.92 130.537L1226.33 128.787ZM1225.22 132.256L1221.32 131.369C1220.94 133.071 1220.54 134.244 1220.19 134.996L1223.81 136.702L1227.42 138.409C1228.12 136.932 1228.67 135.141 1229.12 133.142L1225.22 132.256ZM1223.81 136.702L1220.21 134.94C1219.89 135.594 1219.66 135.745 1219.65 135.748L1221.79 139.13L1223.92 142.512C1225.51 141.507 1226.62 140.039 1227.4 138.464L1223.81 136.702ZM1221.79 139.13L1219.69 135.724C1219.65 135.749 1219.4 135.887 1218.73 135.887L1218.73 139.887L1218.73 143.887C1220.49 143.887 1222.28 143.52 1223.88 142.537L1221.79 139.13ZM1218.73 139.887L1218.73 135.887C1218.13 135.887 1217.76 135.748 1217.49 135.57L1215.29 138.91L1213.09 142.249C1214.8 143.375 1216.72 143.887 1218.73 143.887L1218.73 139.887ZM1215.29 138.91L1217.46 135.549C1217.16 135.352 1216.86 135.047 1216.6 134.474L1212.96 136.134L1209.32 137.794C1210.15 139.619 1211.41 141.164 1213.12 142.27L1215.29 138.91ZM1212.96 136.134L1216.57 134.422C1216.32 133.883 1216.11 133.058 1216.11 131.814L1212.11 131.814L1208.11 131.814C1208.11 133.934 1208.46 135.99 1209.34 137.847L1212.96 136.134ZM1212.11 131.814L1216.11 131.814C1216.11 130.502 1216.35 129.664 1216.62 129.134L1213.08 127.273L1209.54 125.413C1208.52 127.363 1208.11 129.553 1208.11 131.814L1212.11 131.814ZM1213.08 127.273L1216.65 129.086C1216.97 128.446 1217.38 128.018 1217.86 127.707L1215.7 124.34L1213.54 120.974C1211.8 122.092 1210.45 123.62 1209.52 125.46L1213.08 127.273ZM1215.7 124.34L1217.86 127.707C1218.41 127.354 1219.1 127.095 1220.01 126.989L1219.55 123.016L1219.09 119.042C1217.09 119.273 1215.22 119.897 1213.54 120.974L1215.7 124.34ZM1219.55 123.016L1215.55 123.199L1215.74 127.33L1219.74 127.147L1223.73 126.964L1223.54 122.833L1219.55 123.016ZM1219.74 127.147L1219.23 123.179C1217.89 123.351 1216.58 123.784 1215.4 124.558L1217.59 127.904L1219.78 131.25C1219.82 131.224 1219.95 131.153 1220.25 131.114L1219.74 127.147ZM1217.59 127.904L1215.48 124.505C1214.21 125.293 1213.25 126.39 1212.6 127.692L1216.17 129.481L1219.75 131.269C1219.76 131.251 1219.77 131.242 1219.77 131.242C1219.77 131.242 1219.77 131.244 1219.76 131.247C1219.76 131.249 1219.76 131.253 1219.75 131.258C1219.75 131.267 1219.74 131.277 1219.72 131.286C1219.71 131.295 1219.71 131.3 1219.7 131.302L1217.59 127.904ZM1216.17 129.481L1212.67 127.557C1211.91 128.938 1211.64 130.438 1211.64 131.877L1215.64 131.877L1219.64 131.877C1219.64 131.424 1219.72 131.327 1219.68 131.404L1216.17 129.481ZM1215.64 131.877L1211.64 131.877C1211.64 133.654 1212.05 135.557 1213.32 137.159L1216.46 134.684L1219.6 132.208C1219.67 132.304 1219.69 132.367 1219.68 132.34C1219.67 132.303 1219.64 132.162 1219.64 131.877L1215.64 131.877ZM1216.46 134.684L1213.31 137.146C1214.62 138.828 1216.51 139.693 1218.57 139.693L1218.57 135.693L1218.57 131.693C1218.65 131.693 1218.85 131.71 1219.1 131.831C1219.36 131.954 1219.53 132.117 1219.61 132.221L1216.46 134.684ZM1218.57 135.693L1218.57 139.693C1219.78 139.693 1221.12 139.418 1222.34 138.584L1220.08 135.283L1217.83 131.982C1218.25 131.694 1218.58 131.693 1218.57 131.693L1218.57 135.693ZM1220.08 135.283L1222.46 138.503C1223.71 137.576 1224.42 136.276 1224.84 135.223L1221.12 133.738L1217.41 132.252C1217.34 132.425 1217.3 132.473 1217.33 132.442C1217.35 132.41 1217.46 132.246 1217.71 132.063L1220.08 135.283ZM1221.12 133.738L1224.87 135.131C1225.23 134.171 1225.57 132.96 1225.9 131.574L1222.01 130.647L1218.12 129.721C1217.82 130.984 1217.57 131.833 1217.37 132.345L1221.12 133.738ZM1222.01 130.647L1225.92 131.471C1226.3 129.684 1226.73 128.521 1227.12 127.823L1223.62 125.886L1220.12 123.948C1219.2 125.604 1218.56 127.616 1218.09 129.823L1222.01 130.647ZM1223.62 125.886L1227.12 127.823C1227.54 127.063 1227.84 126.851 1227.91 126.815L1225.89 123.363L1223.87 119.911C1222.2 120.883 1221 122.353 1220.12 123.948L1223.62 125.886ZM1225.89 123.363L1227.91 126.815C1228.09 126.709 1228.36 126.606 1228.85 126.606L1228.85 122.606L1228.85 118.606C1227.11 118.606 1225.41 119.007 1223.87 119.911L1225.89 123.363ZM1228.85 122.606L1228.85 126.606C1229.51 126.606 1229.88 126.76 1230.15 126.943L1232.41 123.647L1234.68 120.35C1232.93 119.146 1230.93 118.606 1228.85 118.606L1228.85 122.606ZM1232.41 123.647L1230.12 126.92C1230.42 127.134 1230.75 127.489 1231.05 128.17L1234.72 126.579L1238.39 124.989C1237.59 123.147 1236.38 121.547 1234.71 120.373L1232.41 123.647ZM1234.72 126.579L1231.02 128.118C1231.3 128.788 1231.5 129.725 1231.5 131.026L1235.5 131.026L1239.5 131.026C1239.5 128.92 1239.18 126.894 1238.41 125.041L1234.72 126.579ZM1235 115.04L1235 119.04L1239 119.04L1239 115.04L1235 115.04ZM1216.17 115.04L1216.17 111.04L1212.17 111.04L1212.17 115.04L1216.17 115.04ZM1216.17 121.851L1216.17 125.851L1220.17 125.851L1220.17 121.851L1216.17 121.851ZM1212.61 121.851L1208.61 121.851L1208.61 125.851L1212.61 125.851L1212.61 121.851ZM1212.61 104.16L1212.61 100.16L1208.61 100.16L1208.61 104.16L1212.61 104.16ZM1216.17 104.16L1220.17 104.16L1220.17 100.16L1216.17 100.16L1216.17 104.16ZM1216.17 110.94L1212.17 110.94L1212.17 114.94L1216.17 114.94L1216.17 110.94ZM1235 110.94L1239 110.94L1239 106.94L1235 106.94L1235 110.94ZM1235 115.04L1235 111.04L1216.17 111.04L1216.17 115.04L1216.17 119.04L1235 119.04L1235 115.04ZM1216.17 115.04L1212.17 115.04L1212.17 121.851L1216.17 121.851L1220.17 121.851L1220.17 115.04L1216.17 115.04ZM1216.17 121.851L1216.17 117.851L1212.61 117.851L1212.61 121.851L1212.61 125.851L1216.17 125.851L1216.17 121.851ZM1212.61 121.851L1216.61 121.851L1216.61 104.16L1212.61 104.16L1208.61 104.16L1208.61 121.851L1212.61 121.851ZM1212.61 104.16L1212.61 108.16L1216.17 108.16L1216.17 104.16L1216.17 100.16L1212.61 100.16L1212.61 104.16ZM1216.17 104.16L1212.17 104.16L1212.17 110.94L1216.17 110.94L1220.17 110.94L1220.17 104.16L1216.17 104.16ZM1216.17 110.94L1216.17 114.94L1235 114.94L1235 110.94L1235 106.94L1216.17 106.94L1216.17 110.94ZM1235 110.94L1231 110.94L1231 115.04L1235 115.04L1239 115.04L1239 110.94L1235 110.94ZM1234.46 97.5382L1238.02 99.3713L1238.02 99.3601L1238.03 99.3489L1234.46 97.5382ZM1231.53 100.66L1233.48 104.154L1233.51 104.135L1233.55 104.115L1231.53 100.66ZM1212.58 101.732L1208.58 101.732L1208.58 105.732L1212.58 105.732L1212.58 101.732ZM1212.58 97.6328L1212.58 93.6328L1208.58 93.6328L1208.58 97.6328L1212.58 97.6328ZM1230.65 96.3714L1227.85 93.5082V93.5082L1230.65 96.3714ZM1230.65 89.1813L1227.82 92.0098L1227.84 92.0272L1227.85 92.0445L1230.65 89.1813ZM1212.58 87.8884L1208.58 87.8884L1208.58 91.8884L1212.58 91.8884L1212.58 87.8884ZM1212.58 83.7888L1212.58 79.7888L1208.58 79.7888L1208.58 83.7888L1212.58 83.7888ZM1231.53 84.8926L1233.55 81.4374L1233.53 81.4302L1233.52 81.4231L1231.53 84.8926ZM1234.46 88.0145L1230.91 89.8477L1230.91 89.8592L1230.92 89.8706L1234.46 88.0145ZM1235.5 92.7764L1231.5 92.7764C1231.5 94.0677 1231.26 95.0145 1230.9 95.7274L1234.46 97.5382L1238.03 99.3489C1239.06 97.3288 1239.5 95.101 1239.5 92.7764L1235.5 92.7764ZM1234.46 97.5382L1230.91 95.705C1230.55 96.4005 1230.1 96.867 1229.52 97.205L1231.53 100.66L1233.55 104.115C1235.49 102.982 1236.99 101.367 1238.02 99.3713L1234.46 97.5382ZM1231.53 100.66L1229.58 97.1662C1229 97.4917 1228.18 97.7323 1226.99 97.7323L1226.99 101.732L1226.99 105.732C1229.29 105.732 1231.5 105.258 1233.48 104.154L1231.53 100.66ZM1226.99 101.732L1226.99 97.7323L1212.58 97.7323L1212.58 101.732L1212.58 105.732L1226.99 105.732L1226.99 101.732ZM1212.58 101.732L1216.58 101.732L1216.58 97.6328L1212.58 97.6328L1208.58 97.6328L1208.58 101.732L1212.58 101.732ZM1212.58 97.6328L1212.58 101.633L1226.99 101.633L1226.99 97.6328L1226.99 93.6328L1212.58 93.6328L1212.58 97.6328ZM1226.99 97.6328L1226.99 101.633C1229.28 101.633 1231.62 101.009 1233.44 99.2345L1230.65 96.3714L1227.85 93.5082C1227.88 93.4876 1227.88 93.5042 1227.78 93.5359C1227.67 93.5734 1227.43 93.6328 1226.99 93.6328L1226.99 97.6328ZM1230.65 96.3714L1233.44 99.2345C1235.28 97.4379 1235.94 95.0801 1235.94 92.7764L1231.94 92.7764L1227.94 92.7764C1227.94 93.1916 1227.88 93.4074 1227.85 93.4882C1227.83 93.5508 1227.83 93.5351 1227.85 93.5082L1230.65 96.3714ZM1231.94 92.7764L1235.94 92.7764C1235.94 90.4726 1235.28 88.1148 1233.44 86.3182L1230.65 89.1813L1227.85 92.0445C1227.83 92.0176 1227.83 92.0019 1227.85 92.0645C1227.88 92.1452 1227.94 92.3611 1227.94 92.7764L1231.94 92.7764ZM1230.65 89.1813L1233.48 86.3529C1231.66 84.5386 1229.3 83.8884 1226.99 83.8884L1226.99 87.8884L1226.99 91.8884C1227.42 91.8884 1227.65 91.9479 1227.75 91.983C1227.84 92.012 1227.84 92.0262 1227.82 92.0098L1230.65 89.1813ZM1226.99 87.8884L1226.99 83.8884L1212.58 83.8884L1212.58 87.8884L1212.58 91.8884L1226.99 91.8884L1226.99 87.8884ZM1212.58 87.8884L1216.58 87.8884L1216.58 83.7888L1212.58 83.7888L1208.58 83.7888L1208.58 87.8884L1212.58 87.8884ZM1212.58 83.7888L1212.58 87.7888L1226.99 87.7888L1226.99 83.7888L1226.99 79.7888L1212.58 79.7888L1212.58 83.7888ZM1226.99 83.7888L1226.99 87.7888C1228.16 87.7888 1228.96 88.0318 1229.54 88.362L1231.53 84.8926L1233.52 81.4231C1231.53 80.2817 1229.31 79.7888 1226.99 79.7888L1226.99 83.7888ZM1231.53 84.8926L1229.52 88.3477C1230.1 88.6857 1230.55 89.1522 1230.91 89.8477L1234.46 88.0145L1238.02 86.1814C1236.99 84.1859 1235.49 82.5711 1233.55 81.4374L1231.53 84.8926ZM1234.46 88.0145L1230.92 89.8706C1231.25 90.5021 1231.5 91.4219 1231.5 92.7764L1235.5 92.7764L1239.5 92.7764C1239.5 90.4307 1239.06 88.1759 1238.01 86.1585L1234.46 88.0145ZM1235 78.7474L1235 82.7474L1239 82.7474L1239 78.7474L1235 78.7474ZM1212.61 78.7474L1208.61 78.7474L1208.61 82.7474L1212.61 82.7474L1212.61 78.7474ZM1215.54 63.0744L1218.34 65.9334L1218.36 65.9182L1218.37 65.9029L1215.54 63.0744ZM1232.1 63.0114L1234.9 60.152V60.152L1232.1 63.0114ZM1231.44 74.6478L1231.44 78.6478L1235.44 78.6478L1235.44 74.6478L1231.44 74.6478ZM1229.54 66.1018L1232.22 63.1286L1232.22 63.1286L1229.54 66.1018ZM1218.07 66.1018L1215.39 63.1286V63.1286L1218.07 66.1018ZM1216.17 74.6478L1212.17 74.6478L1212.17 78.6478L1216.17 78.6478L1216.17 74.6478ZM1235 78.7474L1235 74.7474L1212.61 74.7474L1212.61 78.7474L1212.61 82.7474L1235 82.7474L1235 78.7474ZM1212.61 78.7474L1216.61 78.7474L1216.61 71.3051L1212.61 71.3051L1208.61 71.3051L1208.61 78.7474L1212.61 78.7474ZM1212.61 71.3051L1216.61 71.3051C1216.61 68.4627 1217.37 66.8832 1218.34 65.9334L1215.54 63.0744L1212.75 60.2154C1209.81 63.0919 1208.61 66.9995 1208.61 71.3051L1212.61 71.3051ZM1215.54 63.0744L1218.37 65.9029C1219.34 64.9326 1220.96 64.1732 1223.84 64.1732L1223.84 60.1732L1223.84 56.1732C1219.53 56.1732 1215.61 57.348 1212.71 60.246L1215.54 63.0744ZM1223.84 60.1732L1223.84 64.1732C1226.71 64.1732 1228.33 64.9209 1229.3 65.8707L1232.1 63.0114L1234.9 60.152C1232 57.3176 1228.11 56.1732 1223.84 56.1732L1223.84 60.1732ZM1232.1 63.0114L1229.3 65.8707C1230.26 66.8044 1231 68.3459 1231 71.1159L1235 71.1159L1239 71.1159C1239 66.864 1237.81 63.0025 1234.9 60.152L1232.1 63.0114ZM1235 71.1159L1231 71.1159L1231 78.7474L1235 78.7474L1239 78.7474L1239 71.1159L1235 71.1159ZM1231.44 74.6478L1235.44 74.6478L1235.44 71.3051L1231.44 71.3051L1227.44 71.3051L1227.44 74.6478L1231.44 74.6478ZM1231.44 71.3051L1235.44 71.3051C1235.44 68.2795 1234.6 65.2749 1232.22 63.1286L1229.54 66.1018L1226.87 69.075C1227.01 69.1993 1227.44 69.6635 1227.44 71.3051L1231.44 71.3051ZM1229.54 66.1018L1232.22 63.1286C1229.93 61.0695 1226.89 60.3989 1223.84 60.3989L1223.84 64.3989L1223.84 68.3989C1225.87 68.3989 1226.63 68.8636 1226.87 69.075L1229.54 66.1018ZM1223.84 64.3989L1223.84 60.3989C1220.76 60.3989 1217.69 61.0604 1215.39 63.1286L1218.07 66.1018L1220.74 69.075C1220.97 68.8727 1221.74 68.3989 1223.84 68.3989L1223.84 64.3989ZM1218.07 66.1018L1215.39 63.1286C1213.01 65.2749 1212.17 68.2795 1212.17 71.3051L1216.17 71.3051L1220.17 71.3051C1220.17 69.6635 1220.6 69.1993 1220.74 69.075L1218.07 66.1018ZM1216.17 71.3051L1212.17 71.3051L1212.17 74.6478L1216.17 74.6478L1220.17 74.6478L1220.17 71.3051L1216.17 71.3051ZM1216.17 74.6478L1216.17 78.6478L1231.44 78.6478L1231.44 74.6478L1231.44 70.6478L1216.17 70.6478L1216.17 74.6478ZM1235 56.7898L1235 60.7898L1239 60.7898L1239 56.7898L1235 56.7898ZM1212.61 56.7898L1208.61 56.7898L1208.61 60.7898L1212.61 60.7898L1212.61 56.7898ZM1212.61 52.6903L1212.61 48.6903L1208.61 48.6903L1208.61 52.6903L1212.61 52.6903ZM1235 52.6903L1239 52.6903L1239 48.6903L1235 48.6903L1235 52.6903ZM1235 56.7898L1235 52.7898L1212.61 52.7898L1212.61 56.7898L1212.61 60.7898L1235 60.7898L1235 56.7898ZM1212.61 56.7898L1216.61 56.7898L1216.61 52.6903L1212.61 52.6903L1208.61 52.6903L1208.61 56.7898L1212.61 56.7898ZM1212.61 52.6903L1212.61 56.6903L1235 56.6903L1235 52.6903L1235 48.6903L1212.61 48.6903L1212.61 52.6903ZM1235 52.6903L1231 52.6903L1231 56.7898L1235 56.7898L1239 56.7898L1239 52.6903L1235 52.6903ZM1234.12 44.3519L1237.56 46.3899L1237.57 46.373L1237.58 46.3561L1234.12 44.3519ZM1230.08 48.0415L1231.82 51.6449L1231.83 51.6365L1231.85 51.6278L1230.08 48.0415ZM1217.59 48.0415L1215.84 51.6362L1215.85 51.6406L1215.86 51.6449L1217.59 48.0415ZM1213.52 44.3519L1210.08 46.3899L1210.08 46.3899L1213.52 44.3519ZM1213.52 32.9047L1216.95 34.9626L1216.96 34.9527L1216.97 34.9426L1213.52 32.9047ZM1217.59 29.2466L1219.31 32.858L1219.34 32.8456L1219.36 32.8329L1217.59 29.2466ZM1230.08 29.2466L1228.31 32.8329L1228.33 32.8415L1228.34 32.85L1230.08 29.2466ZM1234.12 32.9047L1237.57 30.8806L1237.56 30.8736L1237.56 30.8667L1234.12 32.9047ZM1231 35.1752L1234.32 32.9564L1234.32 32.9481L1234.31 32.9398L1231 35.1752ZM1228.22 32.9677L1226.64 36.641L1226.65 36.6477L1226.67 36.6543L1228.22 32.9677ZM1219.45 32.9677L1220.98 36.6638L1221.01 36.6526L1221.04 36.641L1219.45 32.9677ZM1216.65 35.1752L1219.94 37.4444L1219.95 37.4276L1219.96 37.4106L1216.65 35.1752ZM1219.45 44.3204L1217.87 47.9937L1217.9 48.0053L1217.92 48.0164L1219.45 44.3204ZM1228.22 44.3204L1229.75 48.0164L1229.79 48.0004L1229.83 47.9835L1228.22 44.3204ZM1231 42.0814L1234.31 44.3168L1234.33 44.2917L1234.35 44.2665L1231 42.0814ZM1235.5 38.644L1231.5 38.644C1231.5 40.2858 1231.16 41.4683 1230.66 42.3478L1234.12 44.3519L1237.58 46.3561C1238.92 44.04 1239.5 41.4173 1239.5 38.644L1235.5 38.644ZM1234.12 44.3519L1230.68 42.3139C1230.14 43.2116 1229.39 43.9192 1228.31 44.4552L1230.08 48.0415L1231.85 51.6278C1234.26 50.4399 1236.2 48.6878 1237.56 46.3899L1234.12 44.3519ZM1230.08 48.0415L1228.34 44.4381C1227.26 44.9615 1225.8 45.3029 1223.84 45.3029L1223.84 49.3029L1223.84 53.3029C1226.71 53.3029 1229.41 52.8035 1231.82 51.6449L1230.08 48.0415ZM1223.84 49.3029L1223.84 45.3029C1221.87 45.3029 1220.42 44.9615 1219.33 44.4381L1217.59 48.0415L1215.86 51.6449C1218.26 52.8035 1220.96 53.3029 1223.84 53.3029L1223.84 49.3029ZM1217.59 48.0415L1219.35 44.4469C1218.24 43.9068 1217.49 43.199 1216.97 42.3139L1213.52 44.3519L1210.08 46.3899C1211.45 48.7004 1213.41 50.4524 1215.84 51.6362L1217.59 48.0415ZM1213.52 44.3519L1216.97 42.3139C1216.45 41.4407 1216.11 40.2707 1216.11 38.6441L1212.11 38.6441L1208.11 38.6441C1208.11 41.4324 1208.71 44.0676 1210.08 46.3899L1213.52 44.3519ZM1212.11 38.6441L1216.11 38.6441C1216.11 36.9579 1216.46 35.7924 1216.95 34.9626L1213.52 32.9047L1210.09 30.8467C1208.7 33.1705 1208.11 35.8312 1208.11 38.6441L1212.11 38.6441ZM1213.52 32.9047L1216.97 34.9426C1217.49 34.0663 1218.22 33.3765 1219.31 32.858L1217.59 29.2466L1215.87 25.6351C1213.43 26.7986 1211.46 28.5474 1210.08 30.8667L1213.52 32.9047ZM1217.59 29.2466L1219.36 32.8329C1220.44 32.3009 1221.89 31.9536 1223.84 31.9536L1223.84 27.9536L1223.84 23.9536C1220.95 23.9536 1218.23 24.4683 1215.82 25.6603L1217.59 29.2466ZM1223.84 27.9536L1223.84 31.9536C1225.79 31.9536 1227.23 32.3009 1228.31 32.8329L1230.08 29.2466L1231.85 25.6603C1229.44 24.4683 1226.72 23.9536 1223.84 23.9536L1223.84 27.9536ZM1230.08 29.2466L1228.34 32.85C1229.41 33.3642 1230.15 34.0536 1230.68 34.9426L1234.12 32.9047L1237.56 30.8667C1236.19 28.5601 1234.24 26.8108 1231.82 25.6432L1230.08 29.2466ZM1234.12 32.9047L1230.67 34.9287C1231.16 35.7648 1231.5 36.943 1231.5 38.644L1235.5 38.644L1239.5 38.644C1239.5 35.8461 1238.93 33.198 1237.57 30.8806L1234.12 32.9047ZM1231.94 38.644L1235.94 38.644C1235.94 36.6495 1235.47 34.6823 1234.32 32.9564L1231 35.1752L1227.67 37.394C1227.78 37.5602 1227.94 37.9055 1227.94 38.644L1231.94 38.644ZM1231 35.1752L1234.31 32.9398C1233.18 31.255 1231.6 30.0517 1229.77 29.2812L1228.22 32.9677L1226.67 36.6543C1227.23 36.8929 1227.51 37.1612 1227.68 37.4106L1231 35.1752ZM1228.22 32.9677L1229.8 29.2944C1227.96 28.5017 1225.94 28.1794 1223.84 28.1794L1223.84 32.1794L1223.84 36.1794C1225.14 36.1794 1226.04 36.3826 1226.64 36.641L1228.22 32.9677ZM1223.84 32.1794L1223.84 28.1794C1221.74 28.1794 1219.71 28.5017 1217.87 29.2944L1219.45 32.9677L1221.04 36.641C1221.64 36.3826 1222.53 36.1794 1223.84 36.1794L1223.84 32.1794ZM1219.45 32.9677L1217.92 29.2717C1216.08 30.036 1214.48 31.2374 1213.33 32.9398L1216.65 35.1752L1219.96 37.4106C1220.12 37.1788 1220.39 36.9086 1220.98 36.6638L1219.45 32.9677ZM1216.65 35.1752L1213.35 32.906C1212.16 34.6379 1211.67 36.6239 1211.67 38.6441L1215.67 38.6441L1219.67 38.644C1219.67 37.9311 1219.83 37.6046 1219.94 37.4444L1216.65 35.1752ZM1215.67 38.6441L1211.67 38.6441C1211.67 40.6533 1212.17 42.6023 1213.33 44.3168L1216.65 42.0814L1219.96 39.846C1219.82 39.6263 1219.67 39.2837 1219.67 38.644L1215.67 38.6441ZM1216.65 42.0814L1213.33 44.3168C1214.47 46.0041 1216.05 47.2079 1217.87 47.9937L1219.45 44.3204L1221.04 40.6471C1220.42 40.3816 1220.13 40.0928 1219.96 39.846L1216.65 42.0814ZM1219.45 44.3204L1217.92 48.0164C1219.75 48.7707 1221.75 49.0772 1223.84 49.0772L1223.84 45.0772L1223.84 41.0772C1222.51 41.0772 1221.6 40.8792 1220.98 40.6243L1219.45 44.3204ZM1223.84 45.0772L1223.84 49.0772C1225.92 49.0772 1227.93 48.7707 1229.75 48.0164L1228.22 44.3204L1226.69 40.6243C1226.07 40.8792 1225.16 41.0772 1223.84 41.0772L1223.84 45.0772ZM1228.22 44.3204L1229.83 47.9835C1231.63 47.1919 1233.19 45.9868 1234.31 44.3168L1231 42.0814L1227.68 39.846C1227.5 40.1102 1227.21 40.3977 1226.61 40.6572L1228.22 44.3204ZM1231 42.0814L1234.35 44.2665C1235.46 42.5578 1235.94 40.6272 1235.94 38.644L1231.94 38.644L1227.94 38.644C1227.94 39.3098 1227.79 39.6709 1227.64 39.8963L1231 42.0814ZM1234.53 20.4264L1238.13 22.1701V22.1701L1234.53 20.4264ZM1231.81 23.6114L1233.98 26.9761L1234.01 26.9536L1234.05 26.9303L1231.81 23.6114ZM1227.72 24.9359L1223.72 25.1779L1223.97 29.2527L1228.04 28.9228L1227.72 24.9359ZM1227.46 20.7732L1226.95 16.8068L1223.24 17.2896L1223.47 21.0152L1227.46 20.7732ZM1229.92 19.9533L1232.04 23.3453L1232.08 23.3218L1232.12 23.2975L1229.92 19.9533ZM1231.47 18.2189L1235.05 20.0077L1235.08 19.9454L1235.11 19.8819L1231.47 18.2189ZM1231.66 13.3309L1235.44 12.027L1235.43 11.9903L1235.41 11.9539L1231.66 13.3309ZM1230.68 11.9119L1228.26 15.0936L1228.27 15.1028L1228.28 15.1119L1230.68 11.9119ZM1227.56 11.8173L1229.59 15.261L1229.63 15.24L1229.66 15.2183L1227.56 11.8173ZM1226.33 13.394L1229.92 15.1439L1229.94 15.1042L1229.96 15.064L1226.33 13.394ZM1225.22 16.8629L1221.33 15.9556L1221.33 15.966L1221.32 15.9764L1225.22 16.8629ZM1223.81 21.3093L1227.4 23.071L1227.41 23.0435L1227.42 23.0158L1223.81 21.3093ZM1221.79 23.7375L1223.88 27.1442L1223.9 27.1319L1223.92 27.1195L1221.79 23.7375ZM1215.29 23.5168L1217.49 20.1777L1217.48 20.1671L1217.46 20.1566L1215.29 23.5168ZM1212.96 20.7417L1216.6 19.0817L1216.58 19.0554L1216.57 19.0294L1212.96 20.7417ZM1213.08 11.8803L1216.62 13.7408L1216.64 13.7172L1216.65 13.6933L1213.08 11.8803ZM1215.7 8.94755L1217.86 12.3143L1217.86 12.3143L1215.7 8.94755ZM1219.55 7.62308L1223.54 7.44006L1223.35 3.15575L1219.09 3.64969L1219.55 7.62308ZM1219.74 11.7542L1220.25 15.7217L1223.9 15.253L1223.73 11.5712L1219.74 11.7542ZM1217.59 12.511L1219.7 15.9096L1219.74 15.8837L1219.78 15.8569L1217.59 12.511ZM1216.17 14.0878L1219.68 16.0111L1219.72 15.9445L1219.75 15.8766L1216.17 14.0878ZM1216.46 19.2911L1219.61 16.8285L1219.6 16.822L1219.6 16.8156L1216.46 19.2911ZM1220.08 19.8903L1222.34 23.1915L1222.4 23.152L1222.46 23.1105L1220.08 19.8903ZM1221.12 18.345L1224.84 19.8306L1224.86 19.7844L1224.87 19.7378L1221.12 18.345ZM1222.01 15.2546L1225.9 16.1811L1225.91 16.13L1225.92 16.0786L1222.01 15.2546ZM1223.62 10.4928L1220.12 8.55551L1220.12 8.55551L1223.62 10.4928ZM1225.89 7.96997L1227.91 11.422V11.422L1225.89 7.96997ZM1232.41 8.25378L1234.71 4.98013L1234.7 4.96879L1234.68 4.95761L1232.41 8.25378ZM1234.72 11.1866L1238.41 9.64809L1238.4 9.62202L1238.39 9.59613L1234.72 11.1866ZM1235.5 15.633L1231.5 15.633C1231.5 17.0194 1231.26 17.9942 1230.93 18.6826L1234.53 20.4264L1238.13 22.1701C1239.1 20.1675 1239.5 17.9468 1239.5 15.633L1235.5 15.633ZM1234.53 20.4264L1230.93 18.6826C1230.56 19.4394 1230.11 19.9383 1229.58 20.2925L1231.81 23.6114L1234.05 26.9303C1235.83 25.7288 1237.19 24.1043 1238.13 22.1701L1234.53 20.4264ZM1231.81 23.6114L1229.65 20.2467C1229.09 20.6087 1228.37 20.8697 1227.39 20.949L1227.72 24.9359L1228.04 28.9228C1230.17 28.7498 1232.19 28.1278 1233.98 26.9761L1231.81 23.6114ZM1227.72 24.9359L1231.71 24.6939L1231.46 20.5313L1227.46 20.7732L1223.47 21.0152L1223.72 25.1779L1227.72 24.9359ZM1227.46 20.7732L1227.98 24.7396C1229.39 24.5559 1230.78 24.1315 1232.04 23.3453L1229.92 19.9533L1227.8 16.5613C1227.72 16.6161 1227.47 16.7383 1226.95 16.8068L1227.46 20.7732ZM1229.92 19.9533L1232.12 23.2975C1233.38 22.4715 1234.37 21.3585 1235.05 20.0077L1231.47 18.2189L1227.89 16.43C1227.85 16.5089 1227.82 16.5521 1227.73 16.6091L1229.92 19.9533ZM1231.47 18.2189L1235.11 19.8819C1235.74 18.5021 1235.97 17.0226 1235.97 15.5699L1231.97 15.5699L1227.97 15.5699C1227.97 16.1776 1227.87 16.4641 1227.83 16.5559L1231.47 18.2189ZM1231.97 15.5699L1235.97 15.5699C1235.97 14.3953 1235.84 13.1792 1235.44 12.027L1231.66 13.3309L1227.88 14.6349C1227.9 14.702 1227.97 14.9786 1227.97 15.5699L1231.97 15.5699ZM1231.66 13.3309L1235.41 11.9539C1234.99 10.7975 1234.27 9.60432 1233.08 8.71185L1230.68 11.9119L1228.28 15.1119C1227.93 14.8501 1227.86 14.6029 1227.9 14.708L1231.66 13.3309ZM1230.68 11.9119L1233.1 8.73013C1231.87 7.79184 1230.45 7.4073 1229.07 7.4073L1229.07 11.4073L1229.07 15.4073C1229.03 15.4073 1228.91 15.4014 1228.75 15.35C1228.58 15.297 1228.41 15.2101 1228.26 15.0936L1230.68 11.9119ZM1229.07 11.4073L1229.07 7.4073C1227.83 7.4073 1226.58 7.71522 1225.45 8.4162L1227.56 11.8173L1229.66 15.2183C1229.55 15.2868 1229.43 15.3385 1229.31 15.3707C1229.2 15.4022 1229.11 15.4073 1229.07 15.4073L1229.07 11.4073ZM1227.56 11.8173L1225.52 8.37355C1224.05 9.24115 1223.21 10.6098 1222.69 11.724L1226.33 13.394L1229.96 15.064C1230.05 14.8811 1230.09 14.8379 1230.06 14.8765C1230.03 14.917 1229.88 15.0895 1229.59 15.261L1227.56 11.8173ZM1226.33 13.394L1222.73 11.6441C1222.16 12.8258 1221.71 14.3258 1221.33 15.9556L1225.22 16.8629L1229.12 17.7701C1229.46 16.3306 1229.74 15.5179 1229.92 15.1439L1226.33 13.394ZM1225.22 16.8629L1221.32 15.9764C1220.94 17.6778 1220.54 18.8514 1220.19 19.6029L1223.81 21.3093L1227.42 23.0158C1228.12 21.5388 1228.67 19.748 1229.12 17.7494L1225.22 16.8629ZM1223.81 21.3093L1220.21 19.5476C1219.89 20.2011 1219.66 20.3518 1219.65 20.3556L1221.79 23.7375L1223.92 27.1195C1225.51 26.1141 1226.62 24.646 1227.4 23.071L1223.81 21.3093ZM1221.79 23.7375L1219.69 20.3309C1219.65 20.3565 1219.4 20.4944 1218.73 20.4944L1218.73 24.4944L1218.73 28.4944C1220.49 28.4944 1222.28 28.1277 1223.88 27.1442L1221.79 23.7375ZM1218.73 24.4944L1218.73 20.4944C1218.12 20.4944 1217.76 20.3551 1217.49 20.1777L1215.29 23.5168L1213.09 26.8559C1214.8 27.982 1216.72 28.4944 1218.73 28.4944L1218.73 24.4944ZM1215.29 23.5168L1217.46 20.1566C1217.15 19.9593 1216.86 19.6542 1216.6 19.0817L1212.96 20.7417L1209.32 22.4017C1210.15 24.2259 1211.41 25.7709 1213.12 26.877L1215.29 23.5168ZM1212.96 20.7417L1216.57 19.0294C1216.32 18.4899 1216.11 17.665 1216.11 16.4214L1212.11 16.4214L1208.11 16.4214C1208.11 18.5415 1208.46 20.5968 1209.34 22.454L1212.96 20.7417ZM1212.11 16.4214L1216.11 16.4214C1216.11 15.1087 1216.35 14.2711 1216.62 13.7408L1213.08 11.8803L1209.54 10.0198C1208.52 11.9704 1208.11 14.16 1208.11 16.4214L1212.11 16.4214ZM1213.08 11.8803L1216.65 13.6933C1216.97 13.0528 1217.38 12.6254 1217.86 12.3143L1215.7 8.94755L1213.54 5.58078C1211.8 6.69934 1210.45 8.22708 1209.52 10.0673L1213.08 11.8803ZM1215.7 8.94755L1217.86 12.3143C1218.41 11.9612 1219.1 11.7018 1220.01 11.5965L1219.55 7.62308L1219.09 3.64969C1217.09 3.88072 1215.22 4.5043 1213.54 5.58078L1215.7 8.94755ZM1219.55 7.62308L1215.55 7.80609L1215.74 11.9372L1219.74 11.7542L1223.73 11.5712L1223.54 7.44006L1219.55 7.62308ZM1219.74 11.7542L1219.23 7.78665C1217.89 7.95845 1216.58 8.39166 1215.4 9.16518L1217.59 12.511L1219.78 15.8569C1219.82 15.8315 1219.95 15.7602 1220.25 15.7217L1219.74 11.7542ZM1217.59 12.511L1215.48 9.11247C1214.21 9.9005 1213.25 10.9975 1212.6 12.2989L1216.17 14.0878L1219.75 15.8766C1219.76 15.8578 1219.77 15.8497 1219.77 15.8497C1219.77 15.8496 1219.77 15.8511 1219.76 15.8539C1219.76 15.8567 1219.76 15.8604 1219.75 15.8649C1219.75 15.8742 1219.74 15.8839 1219.72 15.8929C1219.71 15.9018 1219.71 15.9073 1219.7 15.9096L1217.59 12.511ZM1216.17 14.0878L1212.67 12.1645C1211.91 13.5452 1211.64 15.0454 1211.64 16.4845L1215.64 16.4845L1219.64 16.4845C1219.64 16.0314 1219.72 15.9339 1219.68 16.0111L1216.17 14.0878ZM1215.64 16.4845L1211.64 16.4845C1211.64 18.2611 1212.05 20.1639 1213.32 21.7666L1216.46 19.2911L1219.6 16.8156C1219.67 16.9109 1219.69 16.9744 1219.68 16.9474C1219.67 16.9104 1219.64 16.7695 1219.64 16.4845L1215.64 16.4845ZM1216.46 19.2911L1213.31 21.7537C1214.62 23.4348 1216.51 24.3002 1218.57 24.3002L1218.57 20.3002L1218.57 16.3002C1218.65 16.3002 1218.85 16.3177 1219.1 16.4385C1219.36 16.5613 1219.53 16.7238 1219.61 16.8285L1216.46 19.2911ZM1218.57 20.3002L1218.57 24.3002C1219.78 24.3002 1221.12 24.0256 1222.34 23.1915L1220.08 19.8903L1217.83 16.589C1218.25 16.3016 1218.58 16.3002 1218.57 16.3002L1218.57 20.3002ZM1220.08 19.8903L1222.46 23.1105C1223.71 22.1837 1224.42 20.8829 1224.84 19.8306L1221.12 18.345L1217.41 16.8595C1217.34 17.0327 1217.3 17.0801 1217.33 17.0488C1217.35 17.0177 1217.46 16.8535 1217.71 16.67L1220.08 19.8903ZM1221.12 18.345L1224.87 19.7378C1225.23 18.7785 1225.57 17.5671 1225.9 16.1811L1222.01 15.2546L1218.12 14.3281C1217.82 15.5911 1217.57 16.4399 1217.37 16.9523L1221.12 18.345ZM1222.01 15.2546L1225.92 16.0786C1226.3 14.2917 1226.73 13.1285 1227.12 12.43L1223.62 10.4928L1220.12 8.55551C1219.2 10.2117 1218.56 12.223 1218.09 14.4305L1222.01 15.2546ZM1223.62 10.4928L1227.12 12.43C1227.54 11.6705 1227.84 11.4587 1227.91 11.422L1225.89 7.96997L1223.87 4.51791C1222.2 5.49039 1221 6.96042 1220.12 8.55551L1223.62 10.4928ZM1225.89 7.96997L1227.91 11.422C1228.09 11.3165 1228.36 11.2131 1228.85 11.2131L1228.85 7.21312L1228.85 3.21312C1227.11 3.21312 1225.41 3.6143 1223.87 4.51791L1225.89 7.96997ZM1228.85 7.21312L1228.85 11.2131C1229.51 11.2131 1229.88 11.3669 1230.15 11.55L1232.41 8.25378L1234.68 4.95761C1232.93 3.75308 1230.93 3.21312 1228.85 3.21312L1228.85 7.21312ZM1232.41 8.25378L1230.12 11.5274C1230.42 11.741 1230.75 12.0964 1231.05 12.777L1234.72 11.1866L1238.39 9.59613C1237.59 7.75386 1236.38 6.1541 1234.71 4.98013L1232.41 8.25378ZM1234.72 11.1866L1231.02 12.725C1231.3 13.395 1231.5 14.3325 1231.5 15.633L1235.5 15.633L1239.5 15.633C1239.5 13.5277 1239.18 11.501 1238.41 9.64809L1234.72 11.1866Z" fill="#F8F8F7" mask="url(#path-1-outside-1_251_30102)"/>
<mask id="path-3-outside-2_251_30102" maskUnits="userSpaceOnUse" x="1" y="6" width="1186" height="139" fill="black">
<rect fill="white" x="1" y="6" width="1186" height="139"/>
<path d="M5.38634 12.6283H100.669V34.5451H64.0789V138H41.9763V34.5451H5.38634V12.6283ZM119.482 12.6283H141.399V138H119.482V12.6283ZM221.869 12.6283H273.503V34.5451H221.869C197.723 34.5451 187.136 46.618 187.136 75.407C187.136 104.01 197.537 116.083 221.869 116.083H242.671C254.93 116.083 260.13 108.654 260.13 98.4383C260.13 88.4085 254.93 82.465 244.714 82.465H216.854V63.3342H246.943C269.231 63.3342 280.19 77.0786 280.19 98.8097C280.19 120.727 269.231 138 241.185 138H221.869C185.279 138 165.219 117.383 165.219 75.407C165.219 33.245 185.465 12.6283 221.869 12.6283ZM340.65 12.6283H403.428V34.5451H340.65C327.462 34.5451 321.705 40.6744 321.705 50.3327C321.705 60.5481 328.205 65.1915 340.835 65.1915H402.5V85.0653H340.278C327.648 85.0653 321.147 90.0801 321.147 100.296C321.147 110.14 327.277 116.083 340.093 116.083H403.614V138H340.093C310.375 138 298.302 123.327 298.302 103.825C298.302 89.5229 304.803 79.8647 316.318 75.0355C304.617 70.2064 298.673 60.5481 298.673 46.8037C298.673 26.7442 311.118 12.6283 340.65 12.6283ZM429.87 12.6283H497.849C526.081 12.6283 538.154 30.0875 538.154 50.1469C538.154 65.7487 530.724 82.465 511.593 87.8513L540.754 138H516.423L487.819 89.5229H455.13C453.087 89.5229 451.972 90.4516 451.972 92.6804V138H430.055V88.4085C430.055 74.2926 435.999 68.5348 449.743 68.5348H498.592C511.036 68.5348 516.051 59.9909 516.051 51.0756C516.051 42.1603 510.665 34.5451 498.592 34.5451H429.87V12.6283ZM598.791 12.6283H694.073V34.5451H657.483V138H635.381V34.5451H598.791V12.6283ZM750.219 12.6283H812.998V34.5451H750.219C737.032 34.5451 731.274 40.6744 731.274 50.3327C731.274 60.5481 737.775 65.1915 750.405 65.1915H812.069V85.0653H749.848C737.218 85.0653 730.717 90.0801 730.717 100.296C730.717 110.14 736.846 116.083 749.662 116.083H813.184V138H749.662C719.944 138 707.871 123.327 707.871 103.825C707.871 89.5229 714.372 79.8647 725.888 75.0355C714.186 70.2064 708.243 60.5481 708.243 46.8037C708.243 26.7442 720.687 12.6283 750.219 12.6283ZM892.002 37.1454L852.255 138H828.109L872.129 26.5585C876.772 14.8571 885.316 10.3995 898.503 10.3995C911.505 10.3995 920.048 14.8571 924.506 26.5585L966.854 138H942.522L904.447 37.1454C903.332 34.1737 901.289 32.8735 898.317 32.8735C895.346 32.8735 893.302 34.1737 892.002 37.1454ZM1005.33 38.817V138H983.418V37.7026C983.418 21.3579 992.519 10.3995 1011.28 10.3995C1027.99 10.3995 1035.98 19.3148 1040.62 33.6164L1071.08 113.669C1072.39 116.826 1074.8 118.869 1078.14 118.869C1081.86 118.869 1084.64 116.083 1084.64 111.811V37.7026C1084.64 21.3579 1093.74 10.3995 1112.32 10.3995C1129.03 10.3995 1137.02 19.3148 1142.04 33.6164L1180.85 138H1157.27L1119.93 36.9597C1118.63 33.8022 1116.22 31.5734 1112.88 31.5734C1109.16 31.5734 1106.56 34.3594 1106.56 38.817V112.74C1106.56 129.27 1097.09 140.229 1078.7 140.229C1062.17 140.229 1054 131.314 1049.17 117.012L1018.71 36.9597C1017.41 33.8022 1014.99 31.5734 1011.84 31.5734C1007.93 31.5734 1005.33 34.3594 1005.33 38.817Z"/>
</mask>
<path d="M5.38634 12.6283H100.669V34.5451H64.0789V138H41.9763V34.5451H5.38634V12.6283ZM119.482 12.6283H141.399V138H119.482V12.6283ZM221.869 12.6283H273.503V34.5451H221.869C197.723 34.5451 187.136 46.618 187.136 75.407C187.136 104.01 197.537 116.083 221.869 116.083H242.671C254.93 116.083 260.13 108.654 260.13 98.4383C260.13 88.4085 254.93 82.465 244.714 82.465H216.854V63.3342H246.943C269.231 63.3342 280.19 77.0786 280.19 98.8097C280.19 120.727 269.231 138 241.185 138H221.869C185.279 138 165.219 117.383 165.219 75.407C165.219 33.245 185.465 12.6283 221.869 12.6283ZM340.65 12.6283H403.428V34.5451H340.65C327.462 34.5451 321.705 40.6744 321.705 50.3327C321.705 60.5481 328.205 65.1915 340.835 65.1915H402.5V85.0653H340.278C327.648 85.0653 321.147 90.0801 321.147 100.296C321.147 110.14 327.277 116.083 340.093 116.083H403.614V138H340.093C310.375 138 298.302 123.327 298.302 103.825C298.302 89.5229 304.803 79.8647 316.318 75.0355C304.617 70.2064 298.673 60.5481 298.673 46.8037C298.673 26.7442 311.118 12.6283 340.65 12.6283ZM429.87 12.6283H497.849C526.081 12.6283 538.154 30.0875 538.154 50.1469C538.154 65.7487 530.724 82.465 511.593 87.8513L540.754 138H516.423L487.819 89.5229H455.13C453.087 89.5229 451.972 90.4516 451.972 92.6804V138H430.055V88.4085C430.055 74.2926 435.999 68.5348 449.743 68.5348H498.592C511.036 68.5348 516.051 59.9909 516.051 51.0756C516.051 42.1603 510.665 34.5451 498.592 34.5451H429.87V12.6283ZM598.791 12.6283H694.073V34.5451H657.483V138H635.381V34.5451H598.791V12.6283ZM750.219 12.6283H812.998V34.5451H750.219C737.032 34.5451 731.274 40.6744 731.274 50.3327C731.274 60.5481 737.775 65.1915 750.405 65.1915H812.069V85.0653H749.848C737.218 85.0653 730.717 90.0801 730.717 100.296C730.717 110.14 736.846 116.083 749.662 116.083H813.184V138H749.662C719.944 138 707.871 123.327 707.871 103.825C707.871 89.5229 714.372 79.8647 725.888 75.0355C714.186 70.2064 708.243 60.5481 708.243 46.8037C708.243 26.7442 720.687 12.6283 750.219 12.6283ZM892.002 37.1454L852.255 138H828.109L872.129 26.5585C876.772 14.8571 885.316 10.3995 898.503 10.3995C911.505 10.3995 920.048 14.8571 924.506 26.5585L966.854 138H942.522L904.447 37.1454C903.332 34.1737 901.289 32.8735 898.317 32.8735C895.346 32.8735 893.302 34.1737 892.002 37.1454ZM1005.33 38.817V138H983.418V37.7026C983.418 21.3579 992.519 10.3995 1011.28 10.3995C1027.99 10.3995 1035.98 19.3148 1040.62 33.6164L1071.08 113.669C1072.39 116.826 1074.8 118.869 1078.14 118.869C1081.86 118.869 1084.64 116.083 1084.64 111.811V37.7026C1084.64 21.3579 1093.74 10.3995 1112.32 10.3995C1129.03 10.3995 1137.02 19.3148 1142.04 33.6164L1180.85 138H1157.27L1119.93 36.9597C1118.63 33.8022 1116.22 31.5734 1112.88 31.5734C1109.16 31.5734 1106.56 34.3594 1106.56 38.817V112.74C1106.56 129.27 1097.09 140.229 1078.7 140.229C1062.17 140.229 1054 131.314 1049.17 117.012L1018.71 36.9597C1017.41 33.8022 1014.99 31.5734 1011.84 31.5734C1007.93 31.5734 1005.33 34.3594 1005.33 38.817Z" fill="black"/>
<path d="M5.38634 12.6283V8.6283H1.38634V12.6283H5.38634ZM100.669 12.6283H104.669V8.6283H100.669V12.6283ZM100.669 34.5451V38.5451H104.669V34.5451H100.669ZM64.0789 34.5451V30.5451H60.0789V34.5451H64.0789ZM64.0789 138V142H68.0789V138H64.0789ZM41.9763 138H37.9763V142H41.9763V138ZM41.9763 34.5451H45.9763V30.5451H41.9763V34.5451ZM5.38634 34.5451H1.38634V38.5451H5.38634V34.5451ZM5.38634 12.6283V16.6283H100.669V12.6283V8.6283H5.38634V12.6283ZM100.669 12.6283H96.6688V34.5451H100.669H104.669V12.6283H100.669ZM100.669 34.5451V30.5451H64.0789V34.5451V38.5451H100.669V34.5451ZM64.0789 34.5451H60.0789V138H64.0789H68.0789V34.5451H64.0789ZM64.0789 138V134H41.9763V138V142H64.0789V138ZM41.9763 138H45.9763V34.5451H41.9763H37.9763V138H41.9763ZM41.9763 34.5451V30.5451H5.38634V34.5451V38.5451H41.9763V34.5451ZM5.38634 34.5451H9.38634V12.6283H5.38634H1.38634V34.5451H5.38634ZM119.482 12.6283V8.6283H115.482V12.6283H119.482ZM141.399 12.6283H145.399V8.6283H141.399V12.6283ZM141.399 138V142H145.399V138H141.399ZM119.482 138H115.482V142H119.482V138ZM119.482 12.6283V16.6283H141.399V12.6283V8.6283H119.482V12.6283ZM141.399 12.6283H137.399V138H141.399H145.399V12.6283H141.399ZM141.399 138V134H119.482V138V142H141.399V138ZM119.482 138H123.482V12.6283H119.482H115.482V138H119.482ZM273.503 12.6283H277.503V8.6283H273.503V12.6283ZM273.503 34.5451V38.5451H277.503V34.5451H273.503ZM216.854 82.465H212.854V86.465H216.854V82.465ZM216.854 63.3342V59.3342H212.854V63.3342H216.854ZM221.869 12.6283V16.6283H273.503V12.6283V8.6283H221.869V12.6283ZM273.503 12.6283H269.503V34.5451H273.503H277.503V12.6283H273.503ZM273.503 34.5451V30.5451H221.869V34.5451V38.5451H273.503V34.5451ZM221.869 34.5451V30.5451C209.175 30.5451 199.13 33.7291 192.409 41.5788C185.817 49.279 183.136 60.6708 183.136 75.407H187.136H191.136C191.136 61.3541 193.749 52.315 198.486 46.7816C203.096 41.3976 210.417 38.5451 221.869 38.5451V34.5451ZM187.136 75.407H183.136C183.136 90.0411 185.767 101.391 192.339 109.072C199.04 116.904 209.091 120.083 221.869 120.083V116.083V112.083C210.315 112.083 203 109.226 198.417 103.871C193.706 98.3644 191.136 89.3762 191.136 75.407H187.136ZM221.869 116.083V120.083H242.671V116.083V112.083H221.869V116.083ZM242.671 116.083V120.083C249.633 120.083 255.195 117.946 258.965 113.773C262.672 109.672 264.13 104.173 264.13 98.4383H260.13H256.13C256.13 102.919 254.989 106.242 253.03 108.41C251.136 110.506 247.968 112.083 242.671 112.083V116.083ZM260.13 98.4383H264.13C264.13 92.7726 262.658 87.6617 259.167 83.9498C255.637 80.1973 250.601 78.465 244.714 78.465V82.465V86.465C249.043 86.465 251.715 87.7044 253.34 89.4312C255.002 91.1985 256.13 94.0742 256.13 98.4383H260.13ZM244.714 82.465V78.465H216.854V82.465V86.465H244.714V82.465ZM216.854 82.465H220.854V63.3342H216.854H212.854V82.465H216.854ZM216.854 63.3342V67.3342H246.943V63.3342V59.3342H216.854V63.3342ZM246.943 63.3342V67.3342C257.238 67.3342 264.354 70.4796 268.949 75.5956C273.606 80.7818 276.19 88.5666 276.19 98.8097H280.19H284.19C284.19 87.3217 281.294 77.3688 274.901 70.25C268.444 63.061 258.936 59.3342 246.943 59.3342V63.3342ZM280.19 98.8097H276.19C276.19 109.161 273.599 117.882 268.209 123.973C262.897 129.977 254.354 134 241.185 134V138V142C256.063 142 267.022 137.387 274.2 129.274C281.302 121.249 284.19 110.376 284.19 98.8097H280.19ZM241.185 138V134H221.869V138V142H241.185V138ZM221.869 138V134C204.318 134 191.375 129.074 182.764 119.733C174.1 110.336 169.219 95.8207 169.219 75.407H165.219H161.219C161.219 96.9697 166.368 113.751 176.882 125.156C187.448 136.618 202.83 142 221.869 142V138ZM165.219 75.407H169.219C169.219 54.9052 174.144 40.3416 182.833 30.9184C191.47 21.5514 204.416 16.6283 221.869 16.6283V12.6283V8.6283C202.917 8.6283 187.539 14.0135 176.952 25.4954C166.417 36.921 161.219 53.7468 161.219 75.407H165.219ZM403.428 12.6283H407.428V8.6283H403.428V12.6283ZM403.428 34.5451V38.5451H407.428V34.5451H403.428ZM402.5 65.1915H406.5V61.1915H402.5V65.1915ZM402.5 85.0653V89.0653H406.5V85.0653H402.5ZM403.614 116.083H407.614V112.083H403.614V116.083ZM403.614 138V142H407.614V138H403.614ZM316.318 75.0355L317.865 78.7243L326.732 75.006L317.844 71.338L316.318 75.0355ZM340.65 12.6283V16.6283H403.428V12.6283V8.6283H340.65V12.6283ZM403.428 12.6283H399.428V34.5451H403.428H407.428V12.6283H403.428ZM403.428 34.5451V30.5451H340.65V34.5451V38.5451H403.428V34.5451ZM340.65 34.5451V30.5451C333.504 30.5451 327.663 32.1999 323.577 35.8249C319.411 39.5215 317.705 44.696 317.705 50.3327H321.705H325.705C325.705 46.3111 326.877 43.5919 328.887 41.8092C330.977 39.955 334.608 38.5451 340.65 38.5451V34.5451ZM321.705 50.3327H317.705C317.705 56.3559 319.675 61.4005 324.112 64.7762C328.33 67.9859 334.154 69.1915 340.835 69.1915V65.1915V61.1915C334.887 61.1915 331.145 60.0755 328.956 58.4096C326.985 56.9098 325.705 54.5249 325.705 50.3327H321.705ZM340.835 65.1915V69.1915H402.5V65.1915V61.1915H340.835V65.1915ZM402.5 65.1915H398.5V85.0653H402.5H406.5V65.1915H402.5ZM402.5 85.0653V81.0653H340.278V85.0653V89.0653H402.5V85.0653ZM340.278 85.0653V81.0653C333.54 81.0653 327.707 82.3853 323.497 85.7107C319.109 89.1768 317.147 94.281 317.147 100.296H321.147H325.147C325.147 96.0947 326.436 93.5838 328.456 91.9886C330.654 90.2527 334.386 89.0653 340.278 89.0653V85.0653ZM321.147 100.296H317.147C317.147 106.078 318.98 111.251 323.194 114.904C327.316 118.476 333.133 120.083 340.093 120.083V116.083V112.083C334.236 112.083 330.581 110.719 328.434 108.858C326.38 107.078 325.147 104.358 325.147 100.296H321.147ZM340.093 116.083V120.083H403.614V116.083V112.083H340.093V116.083ZM403.614 116.083H399.614V138H403.614H407.614V116.083H403.614ZM403.614 138V134H340.093V138V142H403.614V138ZM340.093 138V134C325.845 134 316.496 130.483 310.74 125.263C305.037 120.09 302.302 112.738 302.302 103.825H298.302H294.302C294.302 114.414 297.603 124.149 305.366 131.189C313.076 138.18 324.622 142 340.093 142V138ZM298.302 103.825H302.302C302.302 97.2856 303.783 92.0761 306.364 88.0285C308.937 83.9941 312.76 80.8653 317.865 78.7243L316.318 75.0355L314.771 71.3468C308.361 74.0349 303.176 78.1498 299.619 83.7272C296.071 89.2915 294.302 96.062 294.302 103.825H298.302ZM316.318 75.0355L317.844 71.338C312.673 69.2038 308.959 66.0926 306.504 62.1489C304.033 58.1795 302.673 53.1019 302.673 46.8037H298.673H294.673C294.673 54.25 296.286 60.8737 299.712 66.3769C303.154 71.9056 308.263 76.0382 314.792 78.733L316.318 75.0355ZM298.673 46.8037H302.673C302.673 37.621 305.494 30.286 311.242 25.1856C317.061 20.0216 326.464 16.6283 340.65 16.6283V12.6283V8.6283C325.304 8.6283 313.718 12.2929 305.932 19.2018C298.075 26.1742 294.673 35.9269 294.673 46.8037H298.673ZM429.87 12.6283V8.6283H425.87V12.6283H429.87ZM511.593 87.8513L510.509 84.001L505.541 85.3999L508.136 89.862L511.593 87.8513ZM540.754 138V142H547.707L544.212 135.989L540.754 138ZM516.423 138L512.978 140.033L514.138 142H516.423V138ZM487.819 89.5229L491.264 87.4902L490.103 85.5229H487.819V89.5229ZM451.972 138V142H455.972V138H451.972ZM430.055 138H426.055V142H430.055V138ZM429.87 34.5451H425.87V38.5451H429.87V34.5451ZM429.87 12.6283V16.6283H497.849V12.6283V8.6283H429.87V12.6283ZM497.849 12.6283V16.6283C511.111 16.6283 520.051 20.7036 525.692 26.6244C531.375 32.5897 534.154 40.8947 534.154 50.1469H538.154H542.154C542.154 39.3397 538.896 28.8853 531.484 21.1062C524.031 13.2826 512.818 8.6283 497.849 8.6283V12.6283ZM538.154 50.1469H534.154C534.154 64.5933 527.372 79.2533 510.509 84.001L511.593 87.8513L512.677 91.7016C534.077 85.6766 542.154 66.9042 542.154 50.1469H538.154ZM511.593 87.8513L508.136 89.862L537.296 140.011L540.754 138L544.212 135.989L515.051 85.8406L511.593 87.8513ZM540.754 138V134H516.423V138V142H540.754V138ZM516.423 138L519.868 135.967L491.264 87.4902L487.819 89.5229L484.374 91.5556L512.978 140.033L516.423 138ZM487.819 89.5229V85.5229H455.13V89.5229V93.5229H487.819V89.5229ZM455.13 89.5229V85.5229C453.583 85.5229 451.597 85.8668 450.02 87.3753C448.409 88.9165 447.972 90.9508 447.972 92.6805H451.972H455.972C455.972 92.4427 456.004 92.4221 455.965 92.5364C455.918 92.6748 455.797 92.9201 455.55 93.1564C455.041 93.6434 454.633 93.5229 455.13 93.5229V89.5229ZM451.972 92.6805H447.972V138H451.972H455.972V92.6805H451.972ZM451.972 138V134H430.055V138V142H451.972V138ZM430.055 138H434.055V88.4085H430.055H426.055V138H430.055ZM430.055 88.4085H434.055C434.055 81.7941 435.466 78.1146 437.574 76.0066C439.681 73.8997 443.312 72.5348 449.743 72.5348V68.5348V64.5348C442.43 64.5348 436.218 66.0487 431.917 70.3498C427.617 74.6497 426.055 80.907 426.055 88.4085H430.055ZM449.743 68.5348V72.5348H498.592V68.5348V64.5348H449.743V68.5348ZM498.592 68.5348V72.5348C505.804 72.5348 511.34 70.0157 515.014 65.7641C518.604 61.6105 520.051 56.2316 520.051 51.0756H516.051H512.051C512.051 54.835 510.991 58.1856 508.962 60.5328C507.018 62.782 503.824 64.5348 498.592 64.5348V68.5348ZM516.051 51.0756H520.051C520.051 45.8362 518.463 40.6372 514.754 36.718C511.002 32.7521 505.504 30.5451 498.592 30.5451V34.5451V38.5451C503.753 38.5451 506.984 40.1457 508.943 42.2162C510.946 44.3334 512.051 47.3997 512.051 51.0756H516.051ZM498.592 34.5451V30.5451H429.87V34.5451V38.5451H498.592V34.5451ZM429.87 34.5451H433.87V12.6283H429.87H425.87V34.5451H429.87ZM598.791 12.6283V8.6283H594.791V12.6283H598.791ZM694.073 12.6283H698.073V8.6283H694.073V12.6283ZM694.073 34.5451V38.5451H698.073V34.5451H694.073ZM657.483 34.5451V30.5451H653.483V34.5451H657.483ZM657.483 138V142H661.483V138H657.483ZM635.381 138H631.381V142H635.381V138ZM635.381 34.5451H639.381V30.5451H635.381V34.5451ZM598.791 34.5451H594.791V38.5451H598.791V34.5451ZM598.791 12.6283V16.6283H694.073V12.6283V8.6283H598.791V12.6283ZM694.073 12.6283H690.073V34.5451H694.073H698.073V12.6283H694.073ZM694.073 34.5451V30.5451H657.483V34.5451V38.5451H694.073V34.5451ZM657.483 34.5451H653.483V138H657.483H661.483V34.5451H657.483ZM657.483 138V134H635.381V138V142H657.483V138ZM635.381 138H639.381V34.5451H635.381H631.381V138H635.381ZM635.381 34.5451V30.5451H598.791V34.5451V38.5451H635.381V34.5451ZM598.791 34.5451H602.791V12.6283H598.791H594.791V34.5451H598.791ZM812.998 12.6283H816.998V8.6283H812.998V12.6283ZM812.998 34.5451V38.5451H816.998V34.5451H812.998ZM812.069 65.1915H816.069V61.1915H812.069V65.1915ZM812.069 85.0653V89.0653H816.069V85.0653H812.069ZM813.184 116.083H817.184V112.083H813.184V116.083ZM813.184 138V142H817.184V138H813.184ZM725.888 75.0355L727.435 78.7243L736.301 75.006L727.414 71.338L725.888 75.0355ZM750.219 12.6283V16.6283H812.998V12.6283V8.6283H750.219V12.6283ZM812.998 12.6283H808.998V34.5451H812.998H816.998V12.6283H812.998ZM812.998 34.5451V30.5451H750.219V34.5451V38.5451H812.998V34.5451ZM750.219 34.5451V30.5451C743.074 30.5451 737.233 32.1999 733.147 35.8249C728.98 39.5215 727.274 44.696 727.274 50.3327H731.274H735.274C735.274 46.3111 736.447 43.5919 738.456 41.8092C740.546 39.955 744.177 38.5451 750.219 38.5451V34.5451ZM731.274 50.3327H727.274C727.274 56.3559 729.244 61.4005 733.681 64.7762C737.9 67.9859 743.724 69.1915 750.405 69.1915V65.1915V61.1915C744.456 61.1915 740.715 60.0755 738.525 58.4096C736.554 56.9098 735.274 54.5249 735.274 50.3327H731.274ZM750.405 65.1915V69.1915H812.069V65.1915V61.1915H750.405V65.1915ZM812.069 65.1915H808.069V85.0653H812.069H816.069V65.1915H812.069ZM812.069 85.0653V81.0653H749.848V85.0653V89.0653H812.069V85.0653ZM749.848 85.0653V81.0653C743.109 81.0653 737.277 82.3853 733.067 85.7107C728.678 89.1768 726.717 94.281 726.717 100.296H730.717H734.717C734.717 96.0947 736.006 93.5838 738.025 91.9886C740.223 90.2527 743.956 89.0653 749.848 89.0653V85.0653ZM730.717 100.296H726.717C726.717 106.078 728.549 111.251 732.764 114.904C736.885 118.476 742.703 120.083 749.662 120.083V116.083V112.083C743.805 112.083 740.15 110.719 738.003 108.858C735.949 107.078 734.717 104.358 734.717 100.296H730.717ZM749.662 116.083V120.083H813.184V116.083V112.083H749.662V116.083ZM813.184 116.083H809.184V138H813.184H817.184V116.083H813.184ZM813.184 138V134H749.662V138V142H813.184V138ZM749.662 138V134C735.415 134 726.066 130.483 720.31 125.263C714.606 120.09 711.871 112.738 711.871 103.825H707.871H703.871C703.871 114.414 707.173 124.149 714.935 131.189C722.645 138.18 734.191 142 749.662 142V138ZM707.871 103.825H711.871C711.871 97.2856 713.353 92.0761 715.934 88.0285C718.506 83.9941 722.329 80.8653 727.435 78.7243L725.888 75.0355L724.341 71.3468C717.931 74.0349 712.745 78.1498 709.188 83.7272C705.64 89.2915 703.871 96.062 703.871 103.825H707.871ZM725.888 75.0355L727.414 71.338C722.242 69.2038 718.528 66.0926 716.073 62.1489C713.602 58.1795 712.243 53.1019 712.243 46.8037H708.243H704.243C704.243 54.25 705.855 60.8737 709.281 66.3769C712.723 71.9056 717.832 76.0382 724.362 78.733L725.888 75.0355ZM708.243 46.8037H712.243C712.243 37.621 715.064 30.286 720.811 25.1856C726.631 20.0216 736.033 16.6283 750.219 16.6283V12.6283V8.6283C734.873 8.6283 723.287 12.2929 715.502 19.2018C707.644 26.1742 704.243 35.9269 704.243 46.8037H708.243ZM892.002 37.1454L888.338 35.5421L888.308 35.6099L888.281 35.6788L892.002 37.1454ZM852.255 138V142H854.978L855.976 139.467L852.255 138ZM828.109 138L824.389 136.53L822.228 142H828.109V138ZM872.129 26.5585L868.411 25.0831L868.408 25.089L872.129 26.5585ZM924.506 26.5585L928.245 25.1376L928.244 25.1345L924.506 26.5585ZM966.854 138V142H972.653L970.593 136.579L966.854 138ZM942.522 138L938.78 139.413L939.757 142H942.522V138ZM904.447 37.1454L900.701 38.5499L900.704 38.5582L904.447 37.1454ZM892.002 37.1454L888.281 35.6788L848.533 136.533L852.255 138L855.976 139.467L895.724 38.6121L892.002 37.1454ZM852.255 138V134H828.109V138V142H852.255V138ZM828.109 138L831.829 139.47L875.849 28.028L872.129 26.5585L868.408 25.089L824.389 136.53L828.109 138ZM872.129 26.5585L875.846 28.0339C877.906 22.8435 880.685 19.5787 884.146 17.5354C887.678 15.4495 892.324 14.3995 898.503 14.3995V10.3995V6.39946C891.495 6.39946 885.275 7.57828 880.078 10.6465C874.809 13.7574 870.994 18.5722 868.411 25.0831L872.129 26.5585ZM898.503 10.3995V14.3995C904.584 14.3995 909.176 15.4475 912.659 17.5258C916.067 19.56 918.798 22.8108 920.768 27.9825L924.506 26.5585L928.244 25.1345C925.756 18.6048 921.986 13.7761 916.758 10.6561C911.604 7.58029 905.424 6.39946 898.503 6.39946V10.3995ZM924.506 26.5585L920.767 27.9794L963.115 139.421L966.854 138L970.593 136.579L928.245 25.1376L924.506 26.5585ZM966.854 138V134H942.522V138V142H966.854V138ZM942.522 138L946.265 136.587L908.189 35.7326L904.447 37.1454L900.704 38.5582L938.78 139.413L942.522 138ZM904.447 37.1454L908.192 35.7409C907.416 33.6719 906.184 31.8532 904.332 30.5901C902.486 29.3318 900.389 28.8735 898.317 28.8735V32.8735V36.8735C899.217 36.8735 899.628 37.0653 899.825 37.2C900.016 37.3299 900.363 37.6472 900.701 38.5499L904.447 37.1454ZM898.317 32.8735V28.8735C896.234 28.8735 894.16 29.3363 892.314 30.5668C890.478 31.7907 889.211 33.5461 888.338 35.5421L892.002 37.1454L895.667 38.7487C896.094 37.773 896.498 37.3924 896.752 37.2233C896.995 37.0607 897.428 36.8735 898.317 36.8735V32.8735ZM1005.33 138V142H1009.33V138H1005.33ZM983.418 138H979.418V142H983.418V138ZM1040.62 33.6164L1036.82 34.8517L1036.85 34.9461L1036.89 35.039L1040.62 33.6164ZM1071.08 113.669L1067.35 115.091L1067.37 115.142L1067.39 115.192L1071.08 113.669ZM1142.04 33.6164L1138.26 34.94L1138.27 34.9755L1138.29 35.0107L1142.04 33.6164ZM1180.85 138V142H1186.61L1184.6 136.606L1180.85 138ZM1157.27 138L1153.51 139.386L1154.48 142H1157.27V138ZM1119.93 36.9597L1123.69 35.5733L1123.66 35.5045L1123.63 35.4367L1119.93 36.9597ZM1049.17 117.012L1052.96 115.732L1052.93 115.66L1052.91 115.589L1049.17 117.012ZM1018.71 36.9597L1022.45 35.5371L1022.43 35.4866L1022.41 35.4367L1018.71 36.9597ZM1005.33 38.817H1001.33V138H1005.33H1009.33V38.817H1005.33ZM1005.33 138V134H983.418V138V142H1005.33V138ZM983.418 138H987.418V37.7026H983.418H979.418V138H983.418ZM983.418 37.7026H987.418C987.418 30.2481 989.485 24.5361 993.19 20.7009C996.87 16.8916 1002.68 14.3995 1011.28 14.3995V10.3995V6.39946C1001.12 6.39946 992.997 9.38652 987.436 15.1426C981.901 20.8728 979.418 28.8124 979.418 37.7026H983.418ZM1011.28 10.3995V14.3995C1018.87 14.3995 1024.06 16.4018 1027.87 19.6765C1031.76 23.0262 1034.61 28.0584 1036.82 34.8517L1040.62 33.6164L1044.43 32.3812C1041.99 24.8728 1038.53 18.2966 1033.09 13.6131C1027.56 8.85475 1020.4 6.39946 1011.28 6.39946V10.3995ZM1040.62 33.6164L1036.89 35.039L1067.35 115.091L1071.08 113.669L1074.82 112.246L1044.36 32.1939L1040.62 33.6164ZM1071.08 113.669L1067.39 115.192C1069.14 119.458 1072.8 122.869 1078.14 122.869V118.869V114.869C1076.8 114.869 1075.63 114.194 1074.78 112.146L1071.08 113.669ZM1078.14 118.869V122.869C1081.04 122.869 1083.74 121.764 1085.7 119.687C1087.65 117.619 1088.64 114.829 1088.64 111.811H1084.64H1080.64C1080.64 113.065 1080.25 113.804 1079.88 114.197C1079.51 114.581 1078.96 114.869 1078.14 114.869V118.869ZM1084.64 111.811H1088.64V37.7026H1084.64H1080.64V111.811H1084.64ZM1084.64 37.7026H1088.64C1088.64 30.2478 1090.71 24.531 1094.4 20.6936C1098.06 16.885 1103.83 14.3995 1112.32 14.3995V10.3995V6.39946C1102.24 6.39946 1094.17 9.3931 1088.63 15.1499C1083.13 20.878 1080.64 28.8127 1080.64 37.7026H1084.64ZM1112.32 10.3995V14.3995C1119.91 14.3995 1125.11 16.3994 1128.97 19.6893C1132.92 23.0587 1135.87 28.1167 1138.26 34.94L1142.04 33.6164L1145.81 32.2929C1143.19 24.8146 1139.63 18.264 1134.16 13.6004C1128.59 8.85715 1121.44 6.39946 1112.32 6.39946V10.3995ZM1142.04 33.6164L1138.29 35.0107L1177.11 139.394L1180.85 138L1184.6 136.606L1145.79 32.2222L1142.04 33.6164ZM1180.85 138V134H1157.27V138V142H1180.85V138ZM1157.27 138L1161.02 136.614L1123.69 35.5733L1119.93 36.9597L1116.18 38.346L1153.51 139.386L1157.27 138ZM1119.93 36.9597L1123.63 35.4367C1121.94 31.3298 1118.36 27.5733 1112.88 27.5733V31.5733V35.5733C1114.08 35.5733 1115.33 36.2745 1116.23 38.4827L1119.93 36.9597ZM1112.88 31.5733V27.5733C1109.96 27.5733 1107.26 28.6963 1105.34 30.8661C1103.44 32.9971 1102.56 35.8218 1102.56 38.817H1106.56H1110.56C1110.56 37.3547 1110.98 36.5575 1111.31 36.181C1111.61 35.8434 1112.07 35.5733 1112.88 35.5733V31.5733ZM1106.56 38.817H1102.56V112.74H1106.56H1110.56V38.817H1106.56ZM1106.56 112.74H1102.56C1102.56 120.258 1100.42 126.024 1096.66 129.897C1092.92 133.748 1087.09 136.229 1078.7 136.229V140.229V144.229C1088.7 144.229 1096.8 141.231 1102.4 135.47C1107.97 129.731 1110.56 121.753 1110.56 112.74H1106.56ZM1078.7 140.229V136.229C1071.21 136.229 1066.01 134.233 1062.14 130.939C1058.19 127.573 1055.25 122.521 1052.96 115.732L1049.17 117.012L1045.38 118.292C1047.92 125.804 1051.48 132.361 1056.95 137.028C1062.51 141.767 1069.66 144.229 1078.7 144.229V140.229ZM1049.17 117.012L1052.91 115.589L1022.45 35.5371L1018.71 36.9597L1014.97 38.3822L1045.43 118.434L1049.17 117.012ZM1018.71 36.9597L1022.41 35.4367C1020.74 31.395 1017.19 27.5733 1011.84 27.5733V31.5733V35.5733C1012.8 35.5733 1014.07 36.2094 1015.01 38.4827L1018.71 36.9597ZM1011.84 31.5733V27.5733C1008.88 27.5733 1006.14 28.6562 1004.16 30.8356C1002.22 32.9778 1001.33 35.8217 1001.33 38.817H1005.33H1009.33C1009.33 37.3548 1009.75 36.5768 1010.08 36.2115C1010.38 35.8835 1010.89 35.5733 1011.84 35.5733V31.5733Z" fill="#F8F8F7" mask="url(#path-3-outside-2_251_30102)"/>
</g>
<defs>
<clipPath id="clip0_251_30102">
<rect width="1243" height="149" fill="white"/>
</clipPath>
</defs>
</svg>
