<svg width="1243" height="149" viewBox="0 0 1243 149" fill="none" xmlns="http://www.w3.org/2000/svg">
<g clip-path="url(#clip0_251_30102)">
<mask id="path-1-outside-1_251_30102" maskUnits="userSpaceOnUse" x="1207" y="6" width="32" height="139" fill="black">
<rect fill="white" x="1207" y="6" width="32" height="139"/>
<path d="M1234.49 131.293C1234.49 133.098 1234.17 134.657 1233.54 135.97C1232.9 137.283 1232.02 138.318 1230.89 139.077C1229.74 139.816 1228.41 140.246 1226.89 140.369L1226.65 136.308C1227.59 136.185 1228.39 135.919 1229.05 135.508C1229.7 135.078 1230.21 134.514 1230.55 133.816C1230.88 133.098 1231.05 132.237 1231.05 131.232C1231.05 130.37 1230.94 129.642 1230.74 129.048C1230.51 128.432 1230.2 127.971 1229.79 127.663C1229.35 127.335 1228.83 127.171 1228.22 127.171C1227.66 127.171 1227.17 127.304 1226.74 127.571C1226.29 127.837 1225.89 128.35 1225.54 129.109C1225.17 129.868 1224.81 130.996 1224.46 132.493C1224.05 134.298 1223.59 135.744 1223.08 136.831C1222.54 137.918 1221.89 138.708 1221.11 139.2C1220.31 139.693 1219.31 139.939 1218.12 139.939C1216.85 139.939 1215.74 139.621 1214.77 138.985C1213.79 138.349 1213.03 137.447 1212.49 136.278C1211.94 135.108 1211.66 133.703 1211.66 132.063C1211.66 130.319 1211.98 128.842 1212.62 127.632C1213.23 126.422 1214.08 125.468 1215.17 124.771C1216.26 124.074 1217.51 123.643 1218.92 123.479L1219.11 127.509C1218.31 127.612 1217.61 127.858 1217.02 128.248C1216.42 128.617 1215.96 129.13 1215.63 129.786C1215.28 130.422 1215.11 131.201 1215.11 132.124C1215.11 133.273 1215.38 134.185 1215.91 134.862C1216.42 135.519 1217.11 135.847 1217.97 135.847C1218.57 135.847 1219.06 135.713 1219.45 135.447C1219.84 135.16 1220.18 134.657 1220.46 133.939C1220.73 133.221 1221.02 132.216 1221.32 130.924C1221.73 128.976 1222.26 127.427 1222.89 126.279C1223.53 125.13 1224.27 124.31 1225.11 123.817C1225.95 123.325 1226.91 123.079 1228 123.079C1229.33 123.079 1230.49 123.417 1231.48 124.094C1232.44 124.771 1233.19 125.725 1233.72 126.955C1234.24 128.186 1234.49 129.632 1234.49 131.293ZM1234 115.697L1215.63 115.697L1215.63 122.343L1212.16 122.343L1212.16 105.083L1215.63 105.083L1215.63 111.698L1234 111.698L1234 115.697ZM1234.49 93.9769C1234.49 95.7408 1234.15 97.2894 1233.48 98.6226C1232.8 99.9353 1231.85 100.951 1230.62 101.668C1229.36 102.366 1227.89 102.714 1226.19 102.714L1212.13 102.714L1212.13 98.7149L1226.19 98.7149C1227.72 98.7149 1228.91 98.3047 1229.75 97.4842C1230.6 96.6638 1231.02 95.4947 1231.02 93.9769C1231.02 92.4591 1230.6 91.29 1229.75 90.4696C1228.91 89.6287 1227.72 89.2082 1226.19 89.2082L1212.13 89.2082L1212.13 85.2086L1226.19 85.2086C1227.89 85.2086 1229.36 85.5675 1230.62 86.2854C1231.85 87.0033 1232.8 88.0186 1233.48 89.3313C1234.15 90.6234 1234.49 92.172 1234.49 93.9769ZM1234 80.2901L1212.16 80.2901L1212.16 73.0294C1212.16 69.5425 1213.11 66.8659 1215.02 64.9994C1216.9 63.1125 1219.6 62.169 1223.11 62.169C1226.6 62.169 1229.28 63.0919 1231.17 64.9379C1233.06 66.7839 1234 69.4195 1234 72.8448L1234 80.2901ZM1230.52 76.2906L1230.52 73.0294C1230.52 70.7527 1229.91 69.0605 1228.68 67.953C1227.45 66.8454 1225.59 66.2916 1223.11 66.2916C1220.59 66.2916 1218.71 66.8454 1217.48 67.953C1216.25 69.0605 1215.63 70.7527 1215.63 73.0294L1215.63 76.2906L1230.52 76.2906ZM1234 58.8681L1212.16 58.8681L1212.16 54.8685L1234 54.8685L1234 58.8681ZM1234.49 41.1649C1234.49 43.3185 1234.04 45.1748 1233.14 46.7336C1232.22 48.2924 1230.9 49.4922 1229.2 50.3332C1227.5 51.1536 1225.47 51.5638 1223.11 51.5638C1220.75 51.5638 1218.72 51.1536 1217.02 50.3332C1215.29 49.4922 1213.97 48.2924 1213.05 46.7336C1212.13 45.1748 1211.66 43.3185 1211.66 41.1649C1211.66 38.9703 1212.13 37.1038 1213.05 35.5655C1213.97 34.0067 1215.29 32.8171 1217.02 31.9967C1218.72 31.1557 1220.75 30.7352 1223.11 30.7352C1225.47 30.7352 1227.5 31.1557 1229.2 31.9966C1230.9 32.8171 1232.22 34.0067 1233.14 35.5655C1234.04 37.1038 1234.49 38.9703 1234.49 41.1649ZM1231.02 41.1649C1231.02 39.8317 1230.71 38.7036 1230.09 37.7807C1229.46 36.8372 1228.55 36.1193 1227.39 35.627C1226.2 35.1143 1224.77 34.8579 1223.11 34.8579C1221.45 34.8579 1220.02 35.1143 1218.83 35.627C1217.64 36.1193 1216.73 36.8372 1216.09 37.7807C1215.46 38.7036 1215.14 39.8317 1215.14 41.1649C1215.14 42.4571 1215.46 43.5749 1216.09 44.5184C1216.73 45.4619 1217.64 46.19 1218.83 46.7028C1220.02 47.1951 1221.45 47.4412 1223.11 47.4412C1224.77 47.4412 1226.2 47.1951 1227.39 46.7028C1228.55 46.19 1229.46 45.4619 1230.09 44.5184C1230.71 43.5749 1231.02 42.4571 1231.02 41.1649ZM1234.49 18.7151C1234.49 20.5201 1234.17 22.0789 1233.54 23.3915C1232.9 24.7042 1232.02 25.74 1230.89 26.4989C1229.74 27.2373 1228.41 27.668 1226.89 27.7911L1226.65 23.73C1227.59 23.6069 1228.39 23.3403 1229.05 22.9301C1229.7 22.4993 1230.21 21.9353 1230.55 21.2379C1230.88 20.5201 1231.05 19.6586 1231.05 18.6536C1231.05 17.7921 1230.94 17.064 1230.74 16.4692C1230.51 15.8539 1230.2 15.3924 1229.79 15.0847C1229.35 14.7566 1228.83 14.5925 1228.22 14.5925C1227.66 14.5925 1227.17 14.7258 1226.74 14.9924C1226.29 15.2591 1225.89 15.7718 1225.54 16.5307C1225.17 17.2896 1224.81 18.4177 1224.46 19.915C1224.05 21.7199 1223.59 23.1659 1223.08 24.253C1222.54 25.3401 1221.89 26.1297 1221.11 26.622C1220.31 27.1142 1219.31 27.3604 1218.12 27.3604C1216.85 27.3604 1215.74 27.0424 1214.77 26.4066C1213.79 25.7708 1213.03 24.8683 1212.49 23.6992C1211.94 22.5301 1211.66 21.1251 1211.66 19.4843C1211.66 17.7409 1211.98 16.2641 1212.62 15.054C1213.23 13.8438 1214.08 12.8901 1215.17 12.1927C1216.26 11.4954 1217.51 11.0646 1218.92 10.9006L1219.11 14.9309C1218.31 15.0335 1217.61 15.2796 1217.02 15.6693C1216.42 16.0385 1215.96 16.5512 1215.63 17.2076C1215.28 17.8434 1215.11 18.6228 1215.11 19.5458C1215.11 20.6944 1215.38 21.6071 1215.91 22.284C1216.42 22.9403 1217.11 23.2685 1217.97 23.2685C1218.57 23.2685 1219.06 23.1352 1219.45 22.8685C1219.84 22.5814 1220.18 22.0789 1220.46 21.361C1220.73 20.6431 1221.02 19.6381 1221.32 18.3459C1221.73 16.3974 1222.26 14.8489 1222.89 13.7003C1223.53 12.5517 1224.27 11.7312 1225.11 11.239C1225.95 10.7467 1226.91 10.5006 1228 10.5006C1229.33 10.5006 1230.49 10.839 1231.48 11.5159C1232.44 12.1927 1233.19 13.1465 1233.72 14.3771C1234.24 15.6077 1234.49 17.0538 1234.49 18.7151Z"/>
</mask>
<path d="M1234.49 131.293C1234.49 133.098 1234.17 134.657 1233.54 135.97C1232.9 137.283 1232.02 138.318 1230.89 139.077C1229.74 139.816 1228.41 140.246 1226.89 140.369L1226.65 136.308C1227.59 136.185 1228.39 135.919 1229.05 135.508C1229.7 135.078 1230.21 134.514 1230.55 133.816C1230.88 133.098 1231.05 132.237 1231.05 131.232C1231.05 130.37 1230.94 129.642 1230.74 129.048C1230.51 128.432 1230.2 127.971 1229.79 127.663C1229.35 127.335 1228.83 127.171 1228.22 127.171C1227.66 127.171 1227.17 127.304 1226.74 127.571C1226.29 127.837 1225.89 128.35 1225.54 129.109C1225.17 129.868 1224.81 130.996 1224.46 132.493C1224.05 134.298 1223.59 135.744 1223.08 136.831C1222.54 137.918 1221.89 138.708 1221.11 139.2C1220.31 139.693 1219.31 139.939 1218.12 139.939C1216.85 139.939 1215.74 139.621 1214.77 138.985C1213.79 138.349 1213.03 137.447 1212.49 136.278C1211.94 135.108 1211.66 133.703 1211.66 132.063C1211.66 130.319 1211.98 128.842 1212.62 127.632C1213.23 126.422 1214.08 125.468 1215.17 124.771C1216.26 124.074 1217.51 123.643 1218.92 123.479L1219.11 127.509C1218.31 127.612 1217.61 127.858 1217.02 128.248C1216.42 128.617 1215.96 129.13 1215.63 129.786C1215.28 130.422 1215.11 131.201 1215.11 132.124C1215.11 133.273 1215.38 134.185 1215.91 134.862C1216.42 135.519 1217.11 135.847 1217.97 135.847C1218.57 135.847 1219.06 135.713 1219.45 135.447C1219.84 135.16 1220.18 134.657 1220.46 133.939C1220.73 133.221 1221.02 132.216 1221.32 130.924C1221.73 128.976 1222.26 127.427 1222.89 126.279C1223.53 125.13 1224.27 124.31 1225.11 123.817C1225.95 123.325 1226.91 123.079 1228 123.079C1229.33 123.079 1230.49 123.417 1231.48 124.094C1232.44 124.771 1233.19 125.725 1233.72 126.955C1234.24 128.186 1234.49 129.632 1234.49 131.293ZM1234 115.697L1215.63 115.697L1215.63 122.343L1212.16 122.343L1212.16 105.083L1215.63 105.083L1215.63 111.698L1234 111.698L1234 115.697ZM1234.49 93.9769C1234.49 95.7408 1234.15 97.2894 1233.48 98.6226C1232.8 99.9353 1231.85 100.951 1230.62 101.668C1229.36 102.366 1227.89 102.714 1226.19 102.714L1212.13 102.714L1212.13 98.7149L1226.19 98.7149C1227.72 98.7149 1228.91 98.3047 1229.75 97.4842C1230.6 96.6638 1231.02 95.4947 1231.02 93.9769C1231.02 92.4591 1230.6 91.29 1229.75 90.4696C1228.91 89.6287 1227.72 89.2082 1226.19 89.2082L1212.13 89.2082L1212.13 85.2086L1226.19 85.2086C1227.89 85.2086 1229.36 85.5675 1230.62 86.2854C1231.85 87.0033 1232.8 88.0186 1233.48 89.3313C1234.15 90.6234 1234.49 92.172 1234.49 93.9769ZM1234 80.2901L1212.16 80.2901L1212.16 73.0294C1212.16 69.5425 1213.11 66.8659 1215.02 64.9994C1216.9 63.1125 1219.6 62.169 1223.11 62.169C1226.6 62.169 1229.28 63.0919 1231.17 64.9379C1233.06 66.7839 1234 69.4195 1234 72.8448L1234 80.2901ZM1230.52 76.2906L1230.52 73.0294C1230.52 70.7527 1229.91 69.0605 1228.68 67.953C1227.45 66.8454 1225.59 66.2916 1223.11 66.2916C1220.59 66.2916 1218.71 66.8454 1217.48 67.953C1216.25 69.0605 1215.63 70.7527 1215.63 73.0294L1215.63 76.2906L1230.52 76.2906ZM1234 58.8681L1212.16 58.8681L1212.16 54.8685L1234 54.8685L1234 58.8681ZM1234.49 41.1649C1234.49 43.3185 1234.04 45.1748 1233.14 46.7336C1232.22 48.2924 1230.9 49.4922 1229.2 50.3332C1227.5 51.1536 1225.47 51.5638 1223.11 51.5638C1220.75 51.5638 1218.72 51.1536 1217.02 50.3332C1215.29 49.4922 1213.97 48.2924 1213.05 46.7336C1212.13 45.1748 1211.66 43.3185 1211.66 41.1649C1211.66 38.9703 1212.13 37.1038 1213.05 35.5655C1213.97 34.0067 1215.29 32.8171 1217.02 31.9967C1218.72 31.1557 1220.75 30.7352 1223.11 30.7352C1225.47 30.7352 1227.5 31.1557 1229.2 31.9966C1230.9 32.8171 1232.22 34.0067 1233.14 35.5655C1234.04 37.1038 1234.49 38.9703 1234.49 41.1649ZM1231.02 41.1649C1231.02 39.8317 1230.71 38.7036 1230.09 37.7807C1229.46 36.8372 1228.55 36.1193 1227.39 35.627C1226.2 35.1143 1224.77 34.8579 1223.11 34.8579C1221.45 34.8579 1220.02 35.1143 1218.83 35.627C1217.64 36.1193 1216.73 36.8372 1216.09 37.7807C1215.46 38.7036 1215.14 39.8317 1215.14 41.1649C1215.14 42.4571 1215.46 43.5749 1216.09 44.5184C1216.73 45.4619 1217.64 46.19 1218.83 46.7028C1220.02 47.1951 1221.45 47.4412 1223.11 47.4412C1224.77 47.4412 1226.2 47.1951 1227.39 46.7028C1228.55 46.19 1229.46 45.4619 1230.09 44.5184C1230.71 43.5749 1231.02 42.4571 1231.02 41.1649ZM1234.49 18.7151C1234.49 20.5201 1234.17 22.0789 1233.54 23.3915C1232.9 24.7042 1232.02 25.74 1230.89 26.4989C1229.74 27.2373 1228.41 27.668 1226.89 27.7911L1226.65 23.73C1227.59 23.6069 1228.39 23.3403 1229.05 22.9301C1229.7 22.4993 1230.21 21.9353 1230.55 21.2379C1230.88 20.5201 1231.05 19.6586 1231.05 18.6536C1231.05 17.7921 1230.94 17.064 1230.74 16.4692C1230.51 15.8539 1230.2 15.3924 1229.79 15.0847C1229.35 14.7566 1228.83 14.5925 1228.22 14.5925C1227.66 14.5925 1227.17 14.7258 1226.74 14.9924C1226.29 15.2591 1225.89 15.7718 1225.54 16.5307C1225.17 17.2896 1224.81 18.4177 1224.46 19.915C1224.05 21.7199 1223.59 23.1659 1223.08 24.253C1222.54 25.3401 1221.89 26.1297 1221.11 26.622C1220.31 27.1142 1219.31 27.3604 1218.12 27.3604C1216.85 27.3604 1215.74 27.0424 1214.77 26.4066C1213.79 25.7708 1213.03 24.8683 1212.49 23.6992C1211.94 22.5301 1211.66 21.1251 1211.66 19.4843C1211.66 17.7409 1211.98 16.2641 1212.62 15.054C1213.23 13.8438 1214.08 12.8901 1215.17 12.1927C1216.26 11.4954 1217.51 11.0646 1218.92 10.9006L1219.11 14.9309C1218.31 15.0335 1217.61 15.2796 1217.02 15.6693C1216.42 16.0385 1215.96 16.5512 1215.63 17.2076C1215.28 17.8434 1215.11 18.6228 1215.11 19.5458C1215.11 20.6944 1215.38 21.6071 1215.91 22.284C1216.42 22.9403 1217.11 23.2685 1217.97 23.2685C1218.57 23.2685 1219.06 23.1352 1219.45 22.8685C1219.84 22.5814 1220.18 22.0789 1220.46 21.361C1220.73 20.6431 1221.02 19.6381 1221.32 18.3459C1221.73 16.3974 1222.26 14.8489 1222.89 13.7003C1223.53 12.5517 1224.27 11.7312 1225.11 11.239C1225.95 10.7467 1226.91 10.5006 1228 10.5006C1229.33 10.5006 1230.49 10.839 1231.48 11.5159C1232.44 12.1927 1233.19 13.1465 1233.72 14.3771C1234.24 15.6077 1234.49 17.0538 1234.49 18.7151Z" fill="black"/>
<path d="M1233.54 135.97L1237.05 137.671L1233.54 135.97ZM1230.89 139.077L1233 142.36L1233.04 142.338L1233.07 142.315L1230.89 139.077ZM1226.89 140.369L1223 140.605L1223.24 144.581L1227.21 144.259L1226.89 140.369ZM1226.65 136.308L1226.14 132.439L1222.53 132.91L1222.75 136.544L1226.65 136.308ZM1229.05 135.508L1231.11 138.818L1231.15 138.795L1231.19 138.771L1229.05 135.508ZM1230.55 133.816L1234.04 135.561L1234.08 135.501L1234.1 135.439L1230.55 133.816ZM1230.74 129.048L1234.43 127.775L1234.42 127.74L1234.4 127.704L1230.74 129.048ZM1229.79 127.663L1227.42 130.767L1227.43 130.776L1227.44 130.785L1229.79 127.663ZM1226.74 127.571L1228.72 130.93L1228.76 130.91L1228.79 130.889L1226.74 127.571ZM1225.54 129.109L1229.05 130.816L1229.07 130.777L1229.09 130.738L1225.54 129.109ZM1224.46 132.493L1220.66 131.608L1220.66 131.618L1220.66 131.628L1224.46 132.493ZM1223.08 136.831L1226.58 138.55L1226.59 138.523L1226.61 138.496L1223.08 136.831ZM1221.11 139.2L1223.15 142.524L1223.17 142.512L1223.19 142.5L1221.11 139.2ZM1214.77 138.985L1216.92 135.727L1216.9 135.717L1216.89 135.707L1214.77 138.985ZM1212.49 136.278L1216.05 134.658L1216.03 134.632L1216.02 134.607L1212.49 136.278ZM1212.62 127.632L1216.07 129.447L1216.08 129.424L1216.1 129.401L1212.62 127.632ZM1215.17 124.771L1217.28 128.056L1217.28 128.056L1215.17 124.771ZM1218.92 123.479L1222.82 123.3L1222.63 119.12L1218.48 119.602L1218.92 123.479ZM1219.11 127.509L1219.61 131.38L1223.17 130.923L1223.01 127.331L1219.11 127.509ZM1217.02 128.248L1219.08 131.563L1219.12 131.538L1219.16 131.512L1217.02 128.248ZM1215.63 129.786L1219.05 131.662L1219.09 131.597L1219.12 131.531L1215.63 129.786ZM1215.91 134.862L1218.98 132.46L1218.98 132.453L1218.97 132.447L1215.91 134.862ZM1219.45 135.447L1221.65 138.668L1221.71 138.629L1221.76 138.589L1219.45 135.447ZM1220.46 133.939L1224.09 135.389L1224.1 135.344L1224.12 135.298L1220.46 133.939ZM1221.32 130.924L1225.12 131.828L1225.13 131.778L1225.14 131.728L1221.32 130.924ZM1222.89 126.279L1219.48 124.389V124.389L1222.89 126.279ZM1225.11 123.817L1227.08 127.185L1227.08 127.185L1225.11 123.817ZM1231.48 124.094L1233.72 120.9L1233.7 120.889L1233.69 120.878L1231.48 124.094ZM1233.72 126.955L1237.33 125.454L1237.31 125.429L1237.3 125.404L1233.72 126.955ZM1234.49 131.293L1230.59 131.293C1230.59 132.646 1230.35 133.597 1230.03 134.269L1233.54 135.97L1237.05 137.671C1238 135.717 1238.39 133.551 1238.39 131.293L1234.49 131.293ZM1233.54 135.97L1230.03 134.269C1229.67 135.007 1229.23 135.494 1228.71 135.839L1230.89 139.077L1233.07 142.315C1234.81 141.143 1236.14 139.558 1237.05 137.671L1233.54 135.97ZM1230.89 139.077L1228.78 135.795C1228.23 136.148 1227.53 136.402 1226.58 136.48L1226.89 140.369L1227.21 144.259C1229.29 144.09 1231.26 143.483 1233 142.36L1230.89 139.077ZM1226.89 140.369L1230.79 140.133L1230.54 136.072L1226.65 136.308L1222.75 136.544L1223 140.605L1226.89 140.369ZM1226.65 136.308L1227.15 140.178C1228.53 139.999 1229.89 139.585 1231.11 138.818L1229.05 135.508L1226.98 132.199C1226.89 132.253 1226.65 132.372 1226.14 132.439L1226.65 136.308ZM1229.05 135.508L1231.19 138.771C1232.42 137.965 1233.39 136.879 1234.04 135.561L1230.55 133.816L1227.06 132.071C1227.03 132.148 1226.99 132.19 1226.91 132.246L1229.05 135.508ZM1230.55 133.816L1234.1 135.439C1234.72 134.093 1234.95 132.649 1234.95 131.232L1231.05 131.232L1227.14 131.232C1227.14 131.825 1227.05 132.104 1227.01 132.194L1230.55 133.816ZM1231.05 131.232L1234.95 131.232C1234.95 130.086 1234.82 128.9 1234.43 127.775L1230.74 129.048L1227.05 130.32C1227.07 130.385 1227.14 130.655 1227.14 131.232L1231.05 131.232ZM1230.74 129.048L1234.4 127.704C1233.99 126.576 1233.29 125.412 1232.13 124.541L1229.79 127.663L1227.44 130.785C1227.1 130.53 1227.04 130.288 1227.07 130.391L1230.74 129.048ZM1229.79 127.663L1232.15 124.559C1230.95 123.644 1229.56 123.268 1228.22 123.268L1228.22 127.171L1228.22 131.073C1228.18 131.073 1228.06 131.067 1227.9 131.017C1227.74 130.966 1227.57 130.881 1227.42 130.767L1229.79 127.663ZM1228.22 127.171L1228.22 123.268C1227.01 123.268 1225.79 123.569 1224.69 124.253L1226.74 127.571L1228.79 130.889C1228.69 130.956 1228.57 131.006 1228.45 131.038C1228.34 131.068 1228.25 131.073 1228.22 131.073L1228.22 127.171ZM1226.74 127.571L1224.75 124.211C1223.32 125.057 1222.49 126.393 1221.99 127.48L1225.54 129.109L1229.09 130.738C1229.17 130.56 1229.21 130.518 1229.18 130.555C1229.15 130.595 1229.01 130.763 1228.72 130.93L1226.74 127.571ZM1225.54 129.109L1222.03 127.402C1221.47 128.555 1221.03 130.018 1220.66 131.608L1224.46 132.493L1228.26 133.378C1228.59 131.974 1228.87 131.181 1229.05 130.816L1225.54 129.109ZM1224.46 132.493L1220.66 131.628C1220.28 133.288 1219.89 134.433 1219.55 135.166L1223.08 136.831L1226.61 138.496C1227.29 137.055 1227.82 135.308 1228.27 133.358L1224.46 132.493ZM1223.08 136.831L1219.57 135.113C1219.26 135.75 1219.03 135.897 1219.03 135.901L1221.11 139.2L1223.19 142.5C1224.75 141.519 1225.83 140.087 1226.58 138.55L1223.08 136.831ZM1221.11 139.2L1219.06 135.877C1219.02 135.902 1218.78 136.036 1218.12 136.036L1218.12 139.939L1218.12 143.841C1219.85 143.841 1221.6 143.483 1223.15 142.524L1221.11 139.2ZM1218.12 139.939L1218.12 136.036C1217.54 136.036 1217.18 135.9 1216.92 135.727L1214.77 138.985L1212.62 142.243C1214.29 143.341 1216.17 143.841 1218.12 143.841L1218.12 139.939ZM1214.77 138.985L1216.89 135.707C1216.59 135.514 1216.3 135.217 1216.05 134.658L1212.49 136.278L1208.94 137.897C1209.76 139.677 1210.98 141.184 1212.65 142.263L1214.77 138.985ZM1212.49 136.278L1216.02 134.607C1215.77 134.081 1215.57 133.276 1215.57 132.063L1211.66 132.063L1207.76 132.063C1207.76 134.131 1208.11 136.136 1208.97 137.948L1212.49 136.278ZM1211.66 132.063L1215.57 132.063C1215.57 130.782 1215.8 129.965 1216.07 129.447L1212.62 127.632L1209.16 125.817C1208.16 127.72 1207.76 129.856 1207.76 132.063L1211.66 132.063ZM1212.62 127.632L1216.1 129.401C1216.41 128.776 1216.81 128.359 1217.28 128.056L1215.17 124.771L1213.06 121.486C1211.36 122.578 1210.05 124.068 1209.14 125.864L1212.62 127.632ZM1215.17 124.771L1217.28 128.056C1217.82 127.711 1218.49 127.458 1219.37 127.355L1218.92 123.479L1218.48 119.602C1216.53 119.828 1214.7 120.436 1213.06 121.486L1215.17 124.771ZM1218.92 123.479L1215.03 123.657L1215.21 127.688L1219.11 127.509L1223.01 127.331L1222.82 123.3L1218.92 123.479ZM1219.11 127.509L1218.61 123.638C1217.31 123.806 1216.03 124.229 1214.88 124.983L1217.02 128.248L1219.16 131.512C1219.19 131.487 1219.31 131.417 1219.61 131.38L1219.11 127.509ZM1217.02 128.248L1214.96 124.932C1213.72 125.701 1212.78 126.771 1212.14 128.041L1215.63 129.786L1219.12 131.531C1219.13 131.513 1219.14 131.505 1219.14 131.505C1219.14 131.505 1219.14 131.506 1219.13 131.509C1219.13 131.512 1219.13 131.515 1219.13 131.52C1219.12 131.529 1219.11 131.538 1219.1 131.547C1219.09 131.556 1219.08 131.561 1219.08 131.563L1217.02 128.248ZM1215.63 129.786L1212.21 127.909C1211.47 129.257 1211.21 130.72 1211.21 132.124L1215.11 132.124L1219.01 132.124C1219.01 131.682 1219.1 131.587 1219.05 131.662L1215.63 129.786ZM1215.11 132.124L1211.21 132.124C1211.21 133.857 1211.61 135.714 1212.84 137.277L1215.91 134.862L1218.97 132.447C1219.05 132.54 1219.06 132.602 1219.06 132.576C1219.04 132.54 1219.01 132.402 1219.01 132.124L1215.11 132.124ZM1215.91 134.862L1212.83 137.265C1214.12 138.905 1215.96 139.749 1217.97 139.749L1217.97 135.847L1217.97 131.944C1218.05 131.944 1218.24 131.961 1218.49 132.079C1218.74 132.199 1218.9 132.358 1218.98 132.46L1215.91 134.862ZM1217.97 135.847L1217.97 139.749C1219.15 139.749 1220.46 139.481 1221.65 138.668L1219.45 135.447L1217.24 132.226C1217.65 131.946 1217.98 131.944 1217.97 131.944L1217.97 135.847ZM1219.45 135.447L1221.76 138.589C1222.99 137.684 1223.68 136.415 1224.09 135.389L1220.46 133.939L1216.84 132.49C1216.77 132.659 1216.74 132.705 1216.76 132.675C1216.78 132.644 1216.89 132.484 1217.13 132.305L1219.45 135.447ZM1220.46 133.939L1224.12 135.298C1224.47 134.362 1224.8 133.18 1225.12 131.828L1221.32 130.924L1217.53 130.02C1217.23 131.253 1216.99 132.081 1216.8 132.581L1220.46 133.939ZM1221.32 130.924L1225.14 131.728C1225.51 129.985 1225.93 128.85 1226.31 128.169L1222.89 126.279L1219.48 124.389C1218.58 126.004 1217.96 127.967 1217.51 130.12L1221.32 130.924ZM1222.89 126.279L1226.31 128.169C1226.72 127.428 1227.02 127.221 1227.08 127.185L1225.11 123.817L1223.14 120.449C1221.52 121.398 1220.34 122.832 1219.48 124.389L1222.89 126.279ZM1225.11 123.817L1227.08 127.185C1227.26 127.082 1227.52 126.981 1228 126.981L1228 123.079L1228 119.176C1226.3 119.176 1224.64 119.568 1223.14 120.449L1225.11 123.817ZM1228 123.079L1228 126.981C1228.64 126.981 1229.01 127.131 1229.27 127.31L1231.48 124.094L1233.69 120.878C1231.98 119.703 1230.03 119.176 1228 119.176L1228 123.079ZM1231.48 124.094L1229.23 127.288C1229.53 127.496 1229.85 127.843 1230.14 128.507L1233.72 126.955L1237.3 125.404C1236.52 123.606 1235.35 122.046 1233.72 120.9L1231.48 124.094ZM1233.72 126.955L1230.12 128.456C1230.39 129.11 1230.59 130.025 1230.59 131.293L1234.49 131.293L1238.39 131.293C1238.39 129.239 1238.08 127.262 1237.33 125.454L1233.72 126.955ZM1234 115.697L1234 119.6L1237.9 119.6L1237.9 115.697L1234 115.697ZM1215.63 115.697L1215.63 111.795L1211.73 111.795L1211.73 115.697L1215.63 115.697ZM1215.63 122.343L1215.63 126.245L1219.54 126.245L1219.54 122.343L1215.63 122.343ZM1212.16 122.343L1208.25 122.343L1208.25 126.245L1212.16 126.245L1212.16 122.343ZM1212.16 105.083L1212.16 101.181L1208.25 101.181L1208.25 105.083L1212.16 105.083ZM1215.63 105.083L1219.54 105.083L1219.54 101.181L1215.63 101.181L1215.63 105.083ZM1215.63 111.698L1211.73 111.698L1211.73 115.6L1215.63 115.6L1215.63 111.698ZM1234 111.698L1237.9 111.698L1237.9 107.795L1234 107.795L1234 111.698ZM1234 115.697L1234 111.795L1215.63 111.795L1215.63 115.697L1215.63 119.6L1234 119.6L1234 115.697ZM1215.63 115.697L1211.73 115.697L1211.73 122.343L1215.63 122.343L1219.54 122.343L1219.54 115.697L1215.63 115.697ZM1215.63 122.343L1215.63 118.44L1212.16 118.44L1212.16 122.343L1212.16 126.245L1215.63 126.245L1215.63 122.343ZM1212.16 122.343L1216.06 122.343L1216.06 105.083L1212.16 105.083L1208.25 105.083L1208.25 122.343L1212.16 122.343ZM1212.16 105.083L1212.16 108.985L1215.63 108.985L1215.63 105.083L1215.63 101.181L1212.16 101.181L1212.16 105.083ZM1215.63 105.083L1211.73 105.083L1211.73 111.698L1215.63 111.698L1219.54 111.698L1219.54 105.083L1215.63 105.083ZM1215.63 111.698L1215.63 115.6L1234 115.6L1234 111.698L1234 107.795L1215.63 107.795L1215.63 111.698ZM1234 111.698L1230.1 111.698L1230.1 115.697L1234 115.697L1237.9 115.697L1237.9 111.698L1234 111.698ZM1233.48 98.6226L1236.95 100.411L1236.95 100.4L1236.96 100.389L1233.48 98.6226ZM1230.62 101.668L1232.52 105.077L1232.55 105.059L1232.58 105.039L1230.62 101.668ZM1212.13 102.714L1208.22 102.714L1208.22 106.617L1212.13 106.617L1212.13 102.714ZM1212.13 98.7149L1212.13 94.8124L1208.22 94.8124L1208.22 98.7149L1212.13 98.7149ZM1229.75 97.4842L1227.03 94.6909V94.6909L1229.75 97.4842ZM1229.75 90.4696L1226.99 93.229L1227.01 93.2461L1227.03 93.2629L1229.75 90.4696ZM1212.13 89.2082L1208.22 89.2082L1208.22 93.1106L1212.13 93.1106L1212.13 89.2082ZM1212.13 85.2086L1212.13 81.3062L1208.22 81.3062L1208.22 85.2086L1212.13 85.2086ZM1230.62 86.2854L1232.58 82.9146L1232.57 82.9075L1232.56 82.9006L1230.62 86.2854ZM1233.48 89.3313L1230.01 91.1197L1230.01 91.1309L1230.02 91.142L1233.48 89.3313ZM1234.49 93.9769L1230.59 93.9769C1230.59 95.2368 1230.35 96.1604 1230 96.856L1233.48 98.6226L1236.96 100.389C1237.96 98.4183 1238.39 96.2449 1238.39 93.9769L1234.49 93.9769ZM1233.48 98.6226L1230.01 96.8341C1229.66 97.5127 1229.21 97.9678 1228.65 98.2976L1230.62 101.668L1232.58 105.039C1234.48 103.933 1235.94 102.358 1236.95 100.411L1233.48 98.6226ZM1230.62 101.668L1228.72 98.2597C1228.15 98.5773 1227.35 98.812 1226.19 98.812L1226.19 102.714L1226.19 106.617C1228.43 106.617 1230.58 106.154 1232.52 105.077L1230.62 101.668ZM1226.19 102.714L1226.19 98.812L1212.13 98.812L1212.13 102.714L1212.13 106.617L1226.19 106.617L1226.19 102.714ZM1212.13 102.714L1216.03 102.714L1216.03 98.7149L1212.13 98.7149L1208.22 98.7149L1208.22 102.714L1212.13 102.714ZM1212.13 98.7149L1212.13 102.617L1226.19 102.617L1226.19 98.7149L1226.19 94.8124L1212.13 94.8124L1212.13 98.7149ZM1226.19 98.7149L1226.19 102.617C1228.42 102.617 1230.71 102.008 1232.48 100.278L1229.75 97.4842L1227.03 94.6909C1227.05 94.6708 1227.05 94.687 1226.96 94.718C1226.85 94.7545 1226.61 94.8124 1226.19 94.8124L1226.19 98.7149ZM1229.75 97.4842L1232.48 100.278C1234.28 98.5248 1234.92 96.2245 1234.92 93.9769L1231.02 93.9769L1227.11 93.9769C1227.11 94.382 1227.06 94.5926 1227.03 94.6714C1227.01 94.7325 1227 94.7172 1227.03 94.6909L1229.75 97.4842ZM1231.02 93.9769L1234.92 93.9769C1234.92 91.7294 1234.28 89.4291 1232.48 87.6763L1229.75 90.4696L1227.03 93.2629C1227 93.2366 1227.01 93.2214 1227.03 93.2824C1227.06 93.3612 1227.11 93.5718 1227.11 93.9769L1231.02 93.9769ZM1229.75 90.4696L1232.51 87.7102C1230.74 85.9401 1228.44 85.3058 1226.19 85.3058L1226.19 89.2082L1226.19 93.1106C1226.61 93.1106 1226.83 93.1686 1226.93 93.2029C1227.01 93.2313 1227.01 93.2451 1226.99 93.229L1229.75 90.4696ZM1226.19 89.2082L1226.19 85.3058L1212.13 85.3058L1212.13 89.2082L1212.13 93.1106L1226.19 93.1106L1226.19 89.2082ZM1212.13 89.2082L1216.03 89.2082L1216.03 85.2086L1212.13 85.2086L1208.22 85.2086L1208.22 89.2082L1212.13 89.2082ZM1212.13 85.2086L1212.13 89.1111L1226.19 89.1111L1226.19 85.2086L1226.19 81.3062L1212.13 81.3062L1212.13 85.2086ZM1226.19 85.2086L1226.19 89.1111C1227.33 89.1111 1228.11 89.3481 1228.67 89.6703L1230.62 86.2854L1232.56 82.9006C1230.62 81.787 1228.45 81.3062 1226.19 81.3062L1226.19 85.2086ZM1230.62 86.2854L1228.65 89.6563C1229.21 89.9861 1229.66 90.4411 1230.01 91.1197L1233.48 89.3313L1236.95 87.5428C1235.94 85.596 1234.48 84.0205 1232.58 82.9146L1230.62 86.2854ZM1233.48 89.3313L1230.02 91.142C1230.34 91.7582 1230.59 92.6555 1230.59 93.9769L1234.49 93.9769L1238.39 93.9769C1238.39 91.6885 1237.96 89.4887 1236.93 87.5205L1233.48 89.3313ZM1234 80.2901L1234 84.1926L1237.9 84.1926L1237.9 80.2901L1234 80.2901ZM1212.16 80.2901L1208.25 80.2901L1208.25 84.1926L1212.16 84.1926L1212.16 80.2901ZM1215.02 64.9994L1217.75 67.7887L1217.76 67.7739L1217.78 67.7589L1215.02 64.9994ZM1231.17 64.9379L1233.9 62.1483V62.1483L1231.17 64.9379ZM1230.52 76.2906L1230.52 80.193L1234.43 80.193L1234.43 76.2906L1230.52 76.2906ZM1228.68 67.953L1231.29 65.0523L1231.29 65.0523L1228.68 67.953ZM1217.48 67.953L1214.87 65.0523V65.0523L1217.48 67.953ZM1215.63 76.2906L1211.73 76.2906L1211.73 80.193L1215.63 80.193L1215.63 76.2906ZM1234 80.2901L1234 76.3877L1212.16 76.3877L1212.16 80.2901L1212.16 84.1926L1234 84.1926L1234 80.2901ZM1212.16 80.2901L1216.06 80.2901L1216.06 73.0294L1212.16 73.0294L1208.25 73.0294L1208.25 80.2901L1212.16 80.2901ZM1212.16 73.0294L1216.06 73.0294C1216.06 70.2563 1216.8 68.7153 1217.75 67.7887L1215.02 64.9994L1212.29 62.2102C1209.42 65.0165 1208.25 68.8288 1208.25 73.0294L1212.16 73.0294ZM1215.02 64.9994L1217.78 67.7589C1218.72 66.8122 1220.3 66.0714 1223.11 66.0714L1223.11 62.169L1223.11 58.2665C1218.9 58.2665 1215.09 59.4127 1212.26 62.24L1215.02 64.9994ZM1223.11 62.169L1223.11 66.0714C1225.91 66.0714 1227.49 66.8008 1228.44 67.7275L1231.17 64.9379L1233.9 62.1483C1231.07 59.383 1227.28 58.2665 1223.11 58.2665L1223.11 62.169ZM1231.17 64.9379L1228.44 67.7275C1229.37 68.6384 1230.1 70.1424 1230.1 72.8448L1234 72.8448L1237.9 72.8448C1237.9 68.6966 1236.74 64.9293 1233.9 62.1483L1231.17 64.9379ZM1234 72.8448L1230.1 72.8448L1230.1 80.2901L1234 80.2901L1237.9 80.2901L1237.9 72.8448L1234 72.8448ZM1230.52 76.2906L1234.43 76.2906L1234.43 73.0294L1230.52 73.0294L1226.62 73.0294L1226.62 76.2906L1230.52 76.2906ZM1230.52 73.0294L1234.43 73.0294C1234.43 70.0775 1233.61 67.1462 1231.29 65.0523L1228.68 67.953L1226.07 70.8536C1226.2 70.9749 1226.62 71.4278 1226.62 73.0294L1230.52 73.0294ZM1228.68 67.953L1231.29 65.0523C1229.06 63.0434 1226.09 62.3892 1223.11 62.3892L1223.11 66.2916L1223.11 70.194C1225.09 70.194 1225.84 70.6474 1226.07 70.8536L1228.68 67.953ZM1223.11 66.2916L1223.11 62.3892C1220.11 62.3892 1217.11 63.0345 1214.87 65.0523L1217.48 67.953L1220.09 70.8536C1220.31 70.6563 1221.06 70.194 1223.11 70.194L1223.11 66.2916ZM1217.48 67.953L1214.87 65.0523C1212.54 67.1462 1211.73 70.0775 1211.73 73.0294L1215.63 73.0294L1219.54 73.0294C1219.54 71.4278 1219.95 70.9749 1220.09 70.8536L1217.48 67.953ZM1215.63 73.0294L1211.73 73.0294L1211.73 76.2906L1215.63 76.2906L1219.54 76.2906L1219.54 73.0294L1215.63 73.0294ZM1215.63 76.2906L1215.63 80.193L1230.52 80.193L1230.52 76.2906L1230.52 72.3881L1215.63 72.3881L1215.63 76.2906ZM1234 58.8681L1234 62.7706L1237.9 62.7706L1237.9 58.8681L1234 58.8681ZM1212.16 58.8681L1208.25 58.8681L1208.25 62.7706L1212.16 62.7706L1212.16 58.8681ZM1212.16 54.8685L1212.16 50.9661L1208.25 50.9661L1208.25 54.8685L1212.16 54.8685ZM1234 54.8685L1237.9 54.8685L1237.9 50.9661L1234 50.9661L1234 54.8685ZM1234 58.8681L1234 54.9657L1212.16 54.9657L1212.16 58.8681L1212.16 62.7706L1234 62.7706L1234 58.8681ZM1212.16 58.8681L1216.06 58.8681L1216.06 54.8685L1212.16 54.8685L1208.25 54.8685L1208.25 58.8681L1212.16 58.8681ZM1212.16 54.8685L1212.16 58.771L1234 58.771L1234 54.8685L1234 50.9661L1212.16 50.9661L1212.16 54.8685ZM1234 54.8685L1230.1 54.8685L1230.1 58.8681L1234 58.8681L1237.9 58.8681L1237.9 54.8685L1234 54.8685ZM1233.14 46.7336L1236.5 48.7218L1236.51 48.7054L1236.52 48.6888L1233.14 46.7336ZM1229.2 50.3332L1230.89 53.8487L1230.91 53.8404L1230.93 53.832L1229.2 50.3332ZM1217.02 50.3332L1215.31 53.8402L1215.31 53.8445L1215.32 53.8487L1217.02 50.3332ZM1213.05 46.7336L1209.69 48.7218L1209.69 48.7218L1213.05 46.7336ZM1213.05 35.5655L1216.39 37.5733L1216.4 37.5635L1216.41 37.5538L1213.05 35.5655ZM1217.02 31.9967L1218.69 35.52L1218.72 35.5079L1218.75 35.4955L1217.02 31.9967ZM1229.2 31.9966L1227.47 35.4955L1227.49 35.5039L1227.51 35.5121L1229.2 31.9966ZM1233.14 35.5655L1236.5 33.5908L1236.5 33.584L1236.5 33.5772L1233.14 35.5655ZM1230.09 37.7807L1233.34 35.616L1233.33 35.6079L1233.33 35.5998L1230.09 37.7807ZM1227.39 35.627L1225.84 39.2107L1225.86 39.2173L1225.87 39.2237L1227.39 35.627ZM1218.83 35.627L1220.32 39.233L1220.35 39.222L1220.38 39.2107L1218.83 35.627ZM1216.09 37.7807L1219.31 39.9945L1219.32 39.9781L1219.33 39.9615L1216.09 37.7807ZM1218.83 46.7028L1217.29 50.2865L1217.31 50.2978L1217.34 50.3087L1218.83 46.7028ZM1227.39 46.7028L1228.88 50.3087L1228.92 50.2931L1228.95 50.2766L1227.39 46.7028ZM1230.09 44.5184L1233.33 46.6993L1233.35 46.6749L1233.36 46.6502L1230.09 44.5184ZM1234.49 41.1649L1230.59 41.1649C1230.59 42.7666 1230.26 43.9203 1229.76 44.7783L1233.14 46.7336L1236.52 48.6888C1237.82 46.4292 1238.39 43.8705 1238.39 41.1649L1234.49 41.1649ZM1233.14 46.7336L1229.78 44.7453C1229.26 45.6211 1228.53 46.3114 1227.47 46.8343L1229.2 50.3332L1230.93 53.832C1233.27 52.6731 1235.17 50.9637 1236.5 48.7218L1233.14 46.7336ZM1229.2 50.3332L1227.51 46.8177C1226.45 47.3283 1225.02 47.6614 1223.11 47.6614L1223.11 51.5638L1223.11 55.4663C1225.91 55.4663 1228.55 54.979 1230.89 53.8487L1229.2 50.3332ZM1223.11 51.5638L1223.11 47.6614C1221.19 47.6614 1219.77 47.3283 1218.71 46.8177L1217.02 50.3332L1215.32 53.8487C1217.67 54.979 1220.31 55.4663 1223.11 55.4663L1223.11 51.5638ZM1217.02 50.3332L1218.73 46.8262C1217.65 46.2993 1216.92 45.6088 1216.41 44.7453L1213.05 46.7336L1209.69 48.7218C1211.03 50.976 1212.94 52.6852 1215.31 53.8402L1217.02 50.3332ZM1213.05 46.7336L1216.41 44.7453C1215.9 43.8934 1215.57 42.7519 1215.57 41.1649L1211.66 41.1649L1207.76 41.1649C1207.76 43.8852 1208.35 46.4561 1209.69 48.7218L1213.05 46.7336ZM1211.66 41.1649L1215.57 41.1649C1215.57 39.5199 1215.91 38.3828 1216.39 37.5733L1213.05 35.5655L1209.7 33.5577C1208.34 35.8248 1207.76 38.4207 1207.76 41.1649L1211.66 41.1649ZM1213.05 35.5655L1216.41 37.5538C1216.91 36.6988 1217.63 36.0258 1218.69 35.52L1217.02 31.9967L1215.34 28.4733C1212.96 29.6083 1211.03 31.3146 1209.69 33.5772L1213.05 35.5655ZM1217.02 31.9967L1218.75 35.4955C1219.8 34.9765 1221.21 34.6377 1223.11 34.6377L1223.11 30.7352L1223.11 26.8328C1220.29 26.8328 1217.64 27.3349 1215.29 28.4978L1217.02 31.9967ZM1223.11 30.7352L1223.11 34.6377C1225.01 34.6377 1226.42 34.9765 1227.47 35.4955L1229.2 31.9966L1230.93 28.4978C1228.57 27.3349 1225.92 26.8328 1223.11 26.8328L1223.11 30.7352ZM1229.2 31.9966L1227.51 35.5121C1228.55 36.0138 1229.27 36.6864 1229.78 37.5538L1233.14 35.5655L1236.5 33.5772C1235.16 31.3269 1233.26 29.6203 1230.89 28.4812L1229.2 31.9966ZM1233.14 35.5655L1229.77 37.5402C1230.25 38.3559 1230.59 39.5053 1230.59 41.1649L1234.49 41.1649L1238.39 41.1649C1238.39 38.4352 1237.83 35.8517 1236.5 33.5908L1233.14 35.5655ZM1231.02 41.1649L1234.92 41.1649C1234.92 39.219 1234.46 37.2997 1233.34 35.616L1230.09 37.7807L1226.85 39.9453C1226.95 40.1075 1227.11 40.4444 1227.11 41.1649L1231.02 41.1649ZM1230.09 37.7807L1233.33 35.5998C1232.22 33.9561 1230.68 32.7821 1228.9 32.0304L1227.39 35.627L1225.87 39.2237C1226.42 39.4565 1226.69 39.7183 1226.86 39.9615L1230.09 37.7807ZM1227.39 35.627L1228.93 32.0433C1227.14 31.2699 1225.16 30.9554 1223.11 30.9554L1223.11 34.8579L1223.11 38.7603C1224.38 38.7603 1225.26 38.9586 1225.84 39.2107L1227.39 35.627ZM1223.11 34.8579L1223.11 30.9554C1221.06 30.9554 1219.08 31.2699 1217.29 32.0433L1218.83 35.627L1220.38 39.2107C1220.96 38.9586 1221.83 38.7603 1223.11 38.7603L1223.11 34.8579ZM1218.83 35.627L1217.34 32.0211C1215.54 32.7668 1213.98 33.9389 1212.86 35.5998L1216.09 37.7807L1219.33 39.9615C1219.48 39.7354 1219.75 39.4718 1220.32 39.233L1218.83 35.627ZM1216.09 37.7807L1212.88 35.5668C1211.72 37.2565 1211.24 39.1941 1211.24 41.1649L1215.14 41.1649L1219.04 41.1649C1219.04 40.4694 1219.2 40.1508 1219.31 39.9945L1216.09 37.7807ZM1215.14 41.1649L1211.24 41.1649C1211.24 43.1252 1211.73 45.0266 1212.86 46.6993L1216.09 44.5184L1219.33 42.3375C1219.19 42.1232 1219.04 41.789 1219.04 41.1649L1215.14 41.1649ZM1216.09 44.5184L1212.86 46.6993C1213.97 48.3455 1215.51 49.5199 1217.29 50.2865L1218.83 46.7028L1220.38 43.1191C1219.78 42.8601 1219.49 42.5783 1219.33 42.3375L1216.09 44.5184ZM1218.83 46.7028L1217.34 50.3087C1219.12 51.0446 1221.08 51.3436 1223.11 51.3436L1223.11 47.4412L1223.11 43.5387C1221.82 43.5387 1220.93 43.3455 1220.32 43.0969L1218.83 46.7028ZM1223.11 47.4412L1223.11 51.3436C1225.14 51.3436 1227.1 51.0446 1228.88 50.3087L1227.39 46.7028L1225.89 43.0969C1225.29 43.3455 1224.4 43.5387 1223.11 43.5387L1223.11 47.4412ZM1227.39 46.7028L1228.95 50.2766C1230.71 49.5043 1232.23 48.3285 1233.33 46.6993L1230.09 44.5184L1226.86 42.3375C1226.68 42.5953 1226.4 42.8758 1225.82 43.129L1227.39 46.7028ZM1230.09 44.5184L1233.36 46.6502C1234.45 44.9832 1234.92 43.0997 1234.92 41.1649L1231.02 41.1649L1227.11 41.1649C1227.11 41.8144 1226.97 42.1667 1226.82 42.3866L1230.09 44.5184ZM1233.54 23.3915L1237.05 25.0927L1233.54 23.3915ZM1230.89 26.4989L1233 29.7816L1233.04 29.7596L1233.07 29.7369L1230.89 26.4989ZM1226.89 27.7911L1223 28.0272L1223.24 32.0026L1227.21 31.6808L1226.89 27.7911ZM1226.65 23.73L1226.14 19.8603L1222.53 20.3313L1222.75 23.966L1226.65 23.73ZM1229.05 22.9301L1231.11 26.2393L1231.15 26.2164L1231.19 26.1927L1229.05 22.9301ZM1230.55 21.2379L1234.04 22.9832L1234.08 22.9223L1234.1 22.8604L1230.55 21.2379ZM1230.74 16.4692L1234.43 15.197L1234.42 15.1613L1234.4 15.1258L1230.74 16.4692ZM1229.79 15.0847L1227.42 18.1888L1227.43 18.1978L1227.44 18.2067L1229.79 15.0847ZM1226.74 14.9924L1228.72 18.3521L1228.76 18.3317L1228.79 18.3105L1226.74 14.9924ZM1225.54 16.5307L1229.05 18.2379L1229.07 18.1992L1229.09 18.16L1225.54 16.5307ZM1224.46 19.915L1220.66 19.0299L1220.66 19.04L1220.66 19.0501L1224.46 19.915ZM1223.08 24.253L1226.58 25.9717L1226.59 25.9449L1226.61 25.9178L1223.08 24.253ZM1221.11 26.622L1223.15 29.9455L1223.17 29.9336L1223.19 29.9214L1221.11 26.622ZM1214.77 26.4066L1216.92 23.149L1216.9 23.1386L1216.89 23.1284L1214.77 26.4066ZM1212.49 23.6992L1216.05 22.0797L1216.03 22.0541L1216.02 22.0286L1212.49 23.6992ZM1212.62 15.054L1216.07 16.8691L1216.08 16.846L1216.1 16.8227L1212.62 15.054ZM1215.17 12.1927L1217.28 15.4774L1217.28 15.4774L1215.17 12.1927ZM1218.92 10.9005L1222.82 10.722L1222.63 6.54217L1218.48 7.02408L1218.92 10.9005ZM1219.11 14.9309L1219.61 18.8017L1223.17 18.3444L1223.01 14.7523L1219.11 14.9309ZM1217.02 15.6693L1219.08 18.985L1219.12 18.9597L1219.16 18.9335L1217.02 15.6693ZM1215.63 17.2076L1219.05 19.084L1219.09 19.0191L1219.12 18.9528L1215.63 17.2076ZM1215.91 22.284L1218.98 19.8815L1218.98 19.8752L1218.97 19.8689L1215.91 22.284ZM1219.45 22.8685L1221.65 26.0892L1221.71 26.0507L1221.76 26.0102L1219.45 22.8685ZM1220.46 21.361L1224.09 22.8103L1224.1 22.7653L1224.12 22.7198L1220.46 21.361ZM1221.32 18.3459L1225.12 19.2498L1225.13 19.2L1225.14 19.1499L1221.32 18.3459ZM1222.89 13.7003L1219.48 11.8102V11.8102L1222.89 13.7003ZM1225.11 11.239L1227.08 14.6068V14.6068L1225.11 11.239ZM1231.48 11.5159L1233.72 8.32207L1233.7 8.311L1233.69 8.30009L1231.48 11.5159ZM1233.72 14.3771L1237.33 12.8762L1237.31 12.8507L1237.3 12.8255L1233.72 14.3771ZM1234.49 18.7151L1230.59 18.7151C1230.59 20.0677 1230.35 21.0188 1230.03 21.6904L1233.54 23.3915L1237.05 25.0927C1238 23.139 1238.39 20.9725 1238.39 18.7151L1234.49 18.7151ZM1233.54 23.3915L1230.03 21.6904C1229.67 22.4287 1229.23 22.9154 1228.71 23.261L1230.89 26.4989L1233.07 29.7369C1234.81 28.5647 1236.14 26.9798 1237.05 25.0927L1233.54 23.3915ZM1230.89 26.4989L1228.78 23.2163C1228.23 23.5695 1227.53 23.8241 1226.58 23.9014L1226.89 27.7911L1227.21 31.6808C1229.29 31.5119 1231.26 30.9051 1233 29.7816L1230.89 26.4989ZM1226.89 27.7911L1230.79 27.555L1230.54 23.4939L1226.65 23.73L1222.75 23.966L1223 28.0272L1226.89 27.7911ZM1226.65 23.73L1227.15 27.5996C1228.53 27.4204 1229.89 27.0063 1231.11 26.2393L1229.05 22.9301L1226.98 19.6208C1226.89 19.6742 1226.65 19.7935 1226.14 19.8603L1226.65 23.73ZM1229.05 22.9301L1231.19 26.1927C1232.42 25.3868 1233.39 24.301 1234.04 22.9832L1230.55 21.2379L1227.06 19.4927C1227.03 19.5696 1226.99 19.6118 1226.91 19.6674L1229.05 22.9301ZM1230.55 21.2379L1234.1 22.8604C1234.72 21.5142 1234.95 20.0708 1234.95 18.6536L1231.05 18.6536L1227.14 18.6536C1227.14 19.2464 1227.05 19.5259 1227.01 19.6154L1230.55 21.2379ZM1231.05 18.6536L1234.95 18.6536C1234.95 17.5076 1234.82 16.3212 1234.43 15.197L1230.74 16.4692L1227.05 17.7414C1227.07 17.8068 1227.14 18.0766 1227.14 18.6536L1231.05 18.6536ZM1230.74 16.4692L1234.4 15.1258C1233.99 13.9976 1233.29 12.8335 1232.13 11.9628L1229.79 15.0847L1227.44 18.2067C1227.1 17.9513 1227.04 17.7102 1227.07 17.8126L1230.74 16.4692ZM1229.79 15.0847L1232.15 11.9806C1230.95 11.0652 1229.56 10.69 1228.22 10.69L1228.22 14.5925L1228.22 18.4949C1228.18 18.4949 1228.06 18.4891 1227.9 18.439C1227.74 18.3873 1227.57 18.3025 1227.42 18.1888L1229.79 15.0847ZM1228.22 14.5925L1228.22 10.69C1227.01 10.69 1225.79 10.9904 1224.69 11.6743L1226.74 14.9924L1228.79 18.3105C1228.69 18.3774 1228.57 18.4278 1228.45 18.4592C1228.34 18.49 1228.25 18.4949 1228.22 18.4949L1228.22 14.5925ZM1226.74 14.9924L1224.75 11.6327C1223.32 12.4792 1222.49 13.8144 1221.99 14.9015L1225.54 16.5307L1229.09 18.16C1229.17 17.9815 1229.21 17.9394 1229.18 17.9771C1229.15 18.0165 1229.01 18.1849 1228.72 18.3521L1226.74 14.9924ZM1225.54 16.5307L1222.03 14.8235C1221.47 15.9764 1221.03 17.4397 1220.66 19.0299L1224.46 19.915L1228.26 20.8001C1228.59 19.3957 1228.87 18.6029 1229.05 18.2379L1225.54 16.5307ZM1224.46 19.915L1220.66 19.0501C1220.28 20.7101 1219.89 21.855 1219.55 22.5881L1223.08 24.253L1226.61 25.9178C1227.29 24.4768 1227.82 22.7298 1228.27 20.7799L1224.46 19.915ZM1223.08 24.253L1219.57 22.5343C1219.26 23.1718 1219.03 23.3188 1219.03 23.3225L1221.11 26.622L1223.19 29.9214C1224.75 28.9406 1225.83 27.5083 1226.58 25.9717L1223.08 24.253ZM1221.11 26.622L1219.06 23.2984C1219.02 23.3234 1218.78 23.4579 1218.12 23.4579L1218.12 27.3604L1218.12 31.2628C1219.85 31.2628 1221.6 30.905 1223.15 29.9455L1221.11 26.622ZM1218.12 27.3604L1218.12 23.4579C1217.54 23.4579 1217.18 23.322 1216.92 23.149L1214.77 26.4066L1212.62 29.6643C1214.29 30.7629 1216.17 31.2628 1218.12 31.2628L1218.12 27.3604ZM1214.77 26.4066L1216.89 23.1284C1216.59 22.9358 1216.3 22.6382 1216.05 22.0797L1212.49 23.6992L1208.94 25.3187C1209.76 27.0984 1210.98 28.6057 1212.65 29.6848L1214.77 26.4066ZM1212.49 23.6992L1216.02 22.0286C1215.77 21.5023 1215.57 20.6976 1215.57 19.4843L1211.66 19.4843L1207.76 19.4843C1207.76 21.5527 1208.11 23.5579 1208.97 25.3698L1212.49 23.6992ZM1211.66 19.4843L1215.57 19.4843C1215.57 18.2036 1215.8 17.3864 1216.07 16.8691L1212.62 15.054L1209.16 13.2388C1208.16 15.1418 1207.76 17.2781 1207.76 19.4843L1211.66 19.4843ZM1212.62 15.054L1216.1 16.8227C1216.41 16.1979 1216.81 15.7808 1217.28 15.4774L1215.17 12.1927L1213.06 8.90807C1211.36 9.99934 1210.05 11.4898 1209.14 13.2852L1212.62 15.054ZM1215.17 12.1927L1217.28 15.4774C1217.82 15.1329 1218.49 14.8798 1219.37 14.777L1218.92 10.9005L1218.48 7.02408C1216.53 7.24947 1214.7 7.85783 1213.06 8.90807L1215.17 12.1927ZM1218.92 10.9005L1215.03 11.0791L1215.21 15.1095L1219.11 14.9309L1223.01 14.7523L1222.82 10.722L1218.92 10.9005ZM1219.11 14.9309L1218.61 11.0601C1217.31 11.2277 1216.03 11.6504 1214.88 12.405L1217.02 15.6693L1219.16 18.9335C1219.19 18.9088 1219.31 18.8392 1219.61 18.8017L1219.11 14.9309ZM1217.02 15.6693L1214.96 12.3536C1213.72 13.1224 1212.78 14.1927 1212.14 15.4624L1215.63 17.2076L1219.12 18.9528C1219.13 18.9344 1219.14 18.9265 1219.14 18.9265C1219.14 18.9264 1219.14 18.9279 1219.13 18.9306C1219.13 18.9333 1219.13 18.937 1219.13 18.9413C1219.12 18.9504 1219.11 18.9599 1219.1 18.9686C1219.09 18.9774 1219.08 18.9827 1219.08 18.985L1217.02 15.6693ZM1215.63 17.2076L1212.21 15.3312C1211.47 16.6782 1211.21 18.1419 1211.21 19.5458L1215.11 19.5458L1219.01 19.5458C1219.01 19.1038 1219.1 19.0086 1219.05 19.084L1215.63 17.2076ZM1215.11 19.5458L1211.21 19.5458C1211.21 21.2791 1211.61 23.1355 1212.84 24.6991L1215.91 22.284L1218.97 19.8689C1219.05 19.9618 1219.06 20.0238 1219.06 19.9975C1219.04 19.9614 1219.01 19.8239 1219.01 19.5458L1215.11 19.5458ZM1215.91 22.284L1212.83 24.6865C1214.12 26.3267 1215.96 27.1709 1217.97 27.1709L1217.97 23.2685L1217.97 19.366C1218.05 19.366 1218.24 19.3831 1218.49 19.5009C1218.74 19.6208 1218.9 19.7793 1218.98 19.8815L1215.91 22.284ZM1217.97 23.2685L1217.97 27.1709C1219.15 27.1709 1220.46 26.903 1221.65 26.0892L1219.45 22.8685L1217.24 19.6478C1217.65 19.3674 1217.98 19.366 1217.97 19.366L1217.97 23.2685ZM1219.45 22.8685L1221.76 26.0102C1222.99 25.106 1223.68 23.8369 1224.09 22.8103L1220.46 21.361L1216.84 19.9117C1216.77 20.0807 1216.74 20.127 1216.76 20.0964C1216.78 20.0661 1216.89 19.9059 1217.13 19.7268L1219.45 22.8685ZM1220.46 21.361L1224.12 22.7198C1224.47 21.7839 1224.8 20.602 1225.12 19.2498L1221.32 18.3459L1217.53 17.442C1217.23 18.6742 1216.99 19.5024 1216.8 20.0022L1220.46 21.361ZM1221.32 18.3459L1225.14 19.1499C1225.51 17.4066 1225.93 16.2717 1226.31 15.5903L1222.89 13.7003L1219.48 11.8102C1218.58 13.426 1217.96 15.3883 1217.51 17.542L1221.32 18.3459ZM1222.89 13.7003L1226.31 15.5903C1226.72 14.8493 1227.02 14.6426 1227.08 14.6068L1225.11 11.239L1223.14 7.87112C1221.52 8.81987 1220.34 10.2541 1219.48 11.8102L1222.89 13.7003ZM1225.11 11.239L1227.08 14.6068C1227.26 14.5039 1227.52 14.403 1228 14.403L1228 10.5006L1228 6.59816C1226.3 6.59816 1224.64 6.98955 1223.14 7.87112L1225.11 11.239ZM1228 10.5006L1228 14.403C1228.64 14.403 1229.01 14.5531 1229.27 14.7316L1231.48 11.5159L1233.69 8.30009C1231.98 7.12494 1230.03 6.59816 1228 6.59816L1228 10.5006ZM1231.48 11.5159L1229.23 14.7097C1229.53 14.9181 1229.85 15.2648 1230.14 15.9287L1233.72 14.3771L1237.3 12.8255C1236.52 11.0281 1235.35 9.46739 1233.72 8.32207L1231.48 11.5159ZM1233.72 14.3771L1230.12 15.8781C1230.39 16.5316 1230.59 17.4463 1230.59 18.7151L1234.49 18.7151L1238.39 18.7151C1238.39 16.6612 1238.08 14.6839 1237.33 12.8762L1233.72 14.3771Z" fill="#F8F8F7" mask="url(#path-1-outside-1_251_30102)"/>
<mask id="path-3-outside-2_251_30102" maskUnits="userSpaceOnUse" x="1" y="6" width="1186" height="139" fill="black">
<rect fill="white" x="1" y="6" width="1186" height="139"/>
<path d="M5.38634 12.6283H100.669V34.5451H64.0789V138H41.9763V34.5451H5.38634V12.6283ZM119.482 12.6283H141.399V138H119.482V12.6283ZM221.869 12.6283H273.503V34.5451H221.869C197.723 34.5451 187.136 46.618 187.136 75.407C187.136 104.01 197.537 116.083 221.869 116.083H242.671C254.93 116.083 260.13 108.654 260.13 98.4383C260.13 88.4085 254.93 82.465 244.714 82.465H216.854V63.3342H246.943C269.231 63.3342 280.19 77.0786 280.19 98.8097C280.19 120.727 269.231 138 241.185 138H221.869C185.279 138 165.219 117.383 165.219 75.407C165.219 33.245 185.465 12.6283 221.869 12.6283ZM340.65 12.6283H403.428V34.5451H340.65C327.462 34.5451 321.705 40.6744 321.705 50.3327C321.705 60.5481 328.205 65.1915 340.835 65.1915H402.5V85.0653H340.278C327.648 85.0653 321.147 90.0801 321.147 100.296C321.147 110.14 327.277 116.083 340.093 116.083H403.614V138H340.093C310.375 138 298.302 123.327 298.302 103.825C298.302 89.5229 304.803 79.8647 316.318 75.0355C304.617 70.2064 298.673 60.5481 298.673 46.8037C298.673 26.7442 311.118 12.6283 340.65 12.6283ZM429.87 12.6283H497.849C526.081 12.6283 538.154 30.0875 538.154 50.1469C538.154 65.7487 530.724 82.465 511.593 87.8513L540.754 138H516.423L487.819 89.5229H455.13C453.087 89.5229 451.972 90.4516 451.972 92.6804V138H430.055V88.4085C430.055 74.2926 435.999 68.5348 449.743 68.5348H498.592C511.036 68.5348 516.051 59.9909 516.051 51.0756C516.051 42.1603 510.665 34.5451 498.592 34.5451H429.87V12.6283ZM598.791 12.6283H694.073V34.5451H657.483V138H635.381V34.5451H598.791V12.6283ZM750.219 12.6283H812.998V34.5451H750.219C737.032 34.5451 731.274 40.6744 731.274 50.3327C731.274 60.5481 737.775 65.1915 750.405 65.1915H812.069V85.0653H749.848C737.218 85.0653 730.717 90.0801 730.717 100.296C730.717 110.14 736.846 116.083 749.662 116.083H813.184V138H749.662C719.944 138 707.871 123.327 707.871 103.825C707.871 89.5229 714.372 79.8647 725.888 75.0355C714.186 70.2064 708.243 60.5481 708.243 46.8037C708.243 26.7442 720.687 12.6283 750.219 12.6283ZM892.002 37.1454L852.255 138H828.109L872.129 26.5585C876.772 14.8571 885.316 10.3995 898.503 10.3995C911.505 10.3995 920.048 14.8571 924.506 26.5585L966.854 138H942.522L904.447 37.1454C903.332 34.1737 901.289 32.8735 898.317 32.8735C895.346 32.8735 893.302 34.1737 892.002 37.1454ZM1005.33 38.817V138H983.418V37.7026C983.418 21.3579 992.519 10.3995 1011.28 10.3995C1027.99 10.3995 1035.98 19.3148 1040.62 33.6164L1071.08 113.669C1072.39 116.826 1074.8 118.869 1078.14 118.869C1081.86 118.869 1084.64 116.083 1084.64 111.811V37.7026C1084.64 21.3579 1093.74 10.3995 1112.32 10.3995C1129.03 10.3995 1137.02 19.3148 1142.04 33.6164L1180.85 138H1157.27L1119.93 36.9597C1118.63 33.8022 1116.22 31.5734 1112.88 31.5734C1109.16 31.5734 1106.56 34.3594 1106.56 38.817V112.74C1106.56 129.27 1097.09 140.229 1078.7 140.229C1062.17 140.229 1054 131.314 1049.17 117.012L1018.71 36.9597C1017.41 33.8022 1014.99 31.5734 1011.84 31.5734C1007.93 31.5734 1005.33 34.3594 1005.33 38.817Z"/>
</mask>
<path d="M5.38634 12.6283H100.669V34.5451H64.0789V138H41.9763V34.5451H5.38634V12.6283ZM119.482 12.6283H141.399V138H119.482V12.6283ZM221.869 12.6283H273.503V34.5451H221.869C197.723 34.5451 187.136 46.618 187.136 75.407C187.136 104.01 197.537 116.083 221.869 116.083H242.671C254.93 116.083 260.13 108.654 260.13 98.4383C260.13 88.4085 254.93 82.465 244.714 82.465H216.854V63.3342H246.943C269.231 63.3342 280.19 77.0786 280.19 98.8097C280.19 120.727 269.231 138 241.185 138H221.869C185.279 138 165.219 117.383 165.219 75.407C165.219 33.245 185.465 12.6283 221.869 12.6283ZM340.65 12.6283H403.428V34.5451H340.65C327.462 34.5451 321.705 40.6744 321.705 50.3327C321.705 60.5481 328.205 65.1915 340.835 65.1915H402.5V85.0653H340.278C327.648 85.0653 321.147 90.0801 321.147 100.296C321.147 110.14 327.277 116.083 340.093 116.083H403.614V138H340.093C310.375 138 298.302 123.327 298.302 103.825C298.302 89.5229 304.803 79.8647 316.318 75.0355C304.617 70.2064 298.673 60.5481 298.673 46.8037C298.673 26.7442 311.118 12.6283 340.65 12.6283ZM429.87 12.6283H497.849C526.081 12.6283 538.154 30.0875 538.154 50.1469C538.154 65.7487 530.724 82.465 511.593 87.8513L540.754 138H516.423L487.819 89.5229H455.13C453.087 89.5229 451.972 90.4516 451.972 92.6804V138H430.055V88.4085C430.055 74.2926 435.999 68.5348 449.743 68.5348H498.592C511.036 68.5348 516.051 59.9909 516.051 51.0756C516.051 42.1603 510.665 34.5451 498.592 34.5451H429.87V12.6283ZM598.791 12.6283H694.073V34.5451H657.483V138H635.381V34.5451H598.791V12.6283ZM750.219 12.6283H812.998V34.5451H750.219C737.032 34.5451 731.274 40.6744 731.274 50.3327C731.274 60.5481 737.775 65.1915 750.405 65.1915H812.069V85.0653H749.848C737.218 85.0653 730.717 90.0801 730.717 100.296C730.717 110.14 736.846 116.083 749.662 116.083H813.184V138H749.662C719.944 138 707.871 123.327 707.871 103.825C707.871 89.5229 714.372 79.8647 725.888 75.0355C714.186 70.2064 708.243 60.5481 708.243 46.8037C708.243 26.7442 720.687 12.6283 750.219 12.6283ZM892.002 37.1454L852.255 138H828.109L872.129 26.5585C876.772 14.8571 885.316 10.3995 898.503 10.3995C911.505 10.3995 920.048 14.8571 924.506 26.5585L966.854 138H942.522L904.447 37.1454C903.332 34.1737 901.289 32.8735 898.317 32.8735C895.346 32.8735 893.302 34.1737 892.002 37.1454ZM1005.33 38.817V138H983.418V37.7026C983.418 21.3579 992.519 10.3995 1011.28 10.3995C1027.99 10.3995 1035.98 19.3148 1040.62 33.6164L1071.08 113.669C1072.39 116.826 1074.8 118.869 1078.14 118.869C1081.86 118.869 1084.64 116.083 1084.64 111.811V37.7026C1084.64 21.3579 1093.74 10.3995 1112.32 10.3995C1129.03 10.3995 1137.02 19.3148 1142.04 33.6164L1180.85 138H1157.27L1119.93 36.9597C1118.63 33.8022 1116.22 31.5734 1112.88 31.5734C1109.16 31.5734 1106.56 34.3594 1106.56 38.817V112.74C1106.56 129.27 1097.09 140.229 1078.7 140.229C1062.17 140.229 1054 131.314 1049.17 117.012L1018.71 36.9597C1017.41 33.8022 1014.99 31.5734 1011.84 31.5734C1007.93 31.5734 1005.33 34.3594 1005.33 38.817Z" fill="black"/>
<path d="M5.38634 12.6283V8.6283H1.38634V12.6283H5.38634ZM100.669 12.6283H104.669V8.6283H100.669V12.6283ZM100.669 34.5451V38.5451H104.669V34.5451H100.669ZM64.0789 34.5451V30.5451H60.0789V34.5451H64.0789ZM64.0789 138V142H68.0789V138H64.0789ZM41.9763 138H37.9763V142H41.9763V138ZM41.9763 34.5451H45.9763V30.5451H41.9763V34.5451ZM5.38634 34.5451H1.38634V38.5451H5.38634V34.5451ZM5.38634 12.6283V16.6283H100.669V12.6283V8.6283H5.38634V12.6283ZM100.669 12.6283H96.6688V34.5451H100.669H104.669V12.6283H100.669ZM100.669 34.5451V30.5451H64.0789V34.5451V38.5451H100.669V34.5451ZM64.0789 34.5451H60.0789V138H64.0789H68.0789V34.5451H64.0789ZM64.0789 138V134H41.9763V138V142H64.0789V138ZM41.9763 138H45.9763V34.5451H41.9763H37.9763V138H41.9763ZM41.9763 34.5451V30.5451H5.38634V34.5451V38.5451H41.9763V34.5451ZM5.38634 34.5451H9.38634V12.6283H5.38634H1.38634V34.5451H5.38634ZM119.482 12.6283V8.6283H115.482V12.6283H119.482ZM141.399 12.6283H145.399V8.6283H141.399V12.6283ZM141.399 138V142H145.399V138H141.399ZM119.482 138H115.482V142H119.482V138ZM119.482 12.6283V16.6283H141.399V12.6283V8.6283H119.482V12.6283ZM141.399 12.6283H137.399V138H141.399H145.399V12.6283H141.399ZM141.399 138V134H119.482V138V142H141.399V138ZM119.482 138H123.482V12.6283H119.482H115.482V138H119.482ZM273.503 12.6283H277.503V8.6283H273.503V12.6283ZM273.503 34.5451V38.5451H277.503V34.5451H273.503ZM216.854 82.465H212.854V86.465H216.854V82.465ZM216.854 63.3342V59.3342H212.854V63.3342H216.854ZM221.869 12.6283V16.6283H273.503V12.6283V8.6283H221.869V12.6283ZM273.503 12.6283H269.503V34.5451H273.503H277.503V12.6283H273.503ZM273.503 34.5451V30.5451H221.869V34.5451V38.5451H273.503V34.5451ZM221.869 34.5451V30.5451C209.175 30.5451 199.13 33.7291 192.409 41.5788C185.817 49.279 183.136 60.6708 183.136 75.407H187.136H191.136C191.136 61.3541 193.749 52.315 198.486 46.7816C203.096 41.3976 210.417 38.5451 221.869 38.5451V34.5451ZM187.136 75.407H183.136C183.136 90.0411 185.767 101.391 192.339 109.072C199.04 116.904 209.091 120.083 221.869 120.083V116.083V112.083C210.315 112.083 203 109.226 198.417 103.871C193.706 98.3644 191.136 89.3762 191.136 75.407H187.136ZM221.869 116.083V120.083H242.671V116.083V112.083H221.869V116.083ZM242.671 116.083V120.083C249.633 120.083 255.195 117.946 258.965 113.773C262.672 109.672 264.13 104.173 264.13 98.4383H260.13H256.13C256.13 102.919 254.989 106.242 253.03 108.41C251.136 110.506 247.968 112.083 242.671 112.083V116.083ZM260.13 98.4383H264.13C264.13 92.7726 262.658 87.6617 259.167 83.9498C255.637 80.1973 250.601 78.465 244.714 78.465V82.465V86.465C249.043 86.465 251.715 87.7044 253.34 89.4312C255.002 91.1985 256.13 94.0742 256.13 98.4383H260.13ZM244.714 82.465V78.465H216.854V82.465V86.465H244.714V82.465ZM216.854 82.465H220.854V63.3342H216.854H212.854V82.465H216.854ZM216.854 63.3342V67.3342H246.943V63.3342V59.3342H216.854V63.3342ZM246.943 63.3342V67.3342C257.238 67.3342 264.354 70.4796 268.949 75.5956C273.606 80.7818 276.19 88.5666 276.19 98.8097H280.19H284.19C284.19 87.3217 281.294 77.3688 274.901 70.25C268.444 63.061 258.936 59.3342 246.943 59.3342V63.3342ZM280.19 98.8097H276.19C276.19 109.161 273.599 117.882 268.209 123.973C262.897 129.977 254.354 134 241.185 134V138V142C256.063 142 267.022 137.387 274.2 129.274C281.302 121.249 284.19 110.376 284.19 98.8097H280.19ZM241.185 138V134H221.869V138V142H241.185V138ZM221.869 138V134C204.318 134 191.375 129.074 182.764 119.733C174.1 110.336 169.219 95.8207 169.219 75.407H165.219H161.219C161.219 96.9697 166.368 113.751 176.882 125.156C187.448 136.618 202.83 142 221.869 142V138ZM165.219 75.407H169.219C169.219 54.9052 174.144 40.3416 182.833 30.9184C191.47 21.5514 204.416 16.6283 221.869 16.6283V12.6283V8.6283C202.917 8.6283 187.539 14.0135 176.952 25.4954C166.417 36.921 161.219 53.7468 161.219 75.407H165.219ZM403.428 12.6283H407.428V8.6283H403.428V12.6283ZM403.428 34.5451V38.5451H407.428V34.5451H403.428ZM402.5 65.1915H406.5V61.1915H402.5V65.1915ZM402.5 85.0653V89.0653H406.5V85.0653H402.5ZM403.614 116.083H407.614V112.083H403.614V116.083ZM403.614 138V142H407.614V138H403.614ZM316.318 75.0355L317.865 78.7243L326.732 75.006L317.844 71.338L316.318 75.0355ZM340.65 12.6283V16.6283H403.428V12.6283V8.6283H340.65V12.6283ZM403.428 12.6283H399.428V34.5451H403.428H407.428V12.6283H403.428ZM403.428 34.5451V30.5451H340.65V34.5451V38.5451H403.428V34.5451ZM340.65 34.5451V30.5451C333.504 30.5451 327.663 32.1999 323.577 35.8249C319.411 39.5215 317.705 44.696 317.705 50.3327H321.705H325.705C325.705 46.3111 326.877 43.5919 328.887 41.8092C330.977 39.955 334.608 38.5451 340.65 38.5451V34.5451ZM321.705 50.3327H317.705C317.705 56.3559 319.675 61.4005 324.112 64.7762C328.33 67.9859 334.154 69.1915 340.835 69.1915V65.1915V61.1915C334.887 61.1915 331.145 60.0755 328.956 58.4096C326.985 56.9098 325.705 54.5249 325.705 50.3327H321.705ZM340.835 65.1915V69.1915H402.5V65.1915V61.1915H340.835V65.1915ZM402.5 65.1915H398.5V85.0653H402.5H406.5V65.1915H402.5ZM402.5 85.0653V81.0653H340.278V85.0653V89.0653H402.5V85.0653ZM340.278 85.0653V81.0653C333.54 81.0653 327.707 82.3853 323.497 85.7107C319.109 89.1768 317.147 94.281 317.147 100.296H321.147H325.147C325.147 96.0947 326.436 93.5838 328.456 91.9886C330.654 90.2527 334.386 89.0653 340.278 89.0653V85.0653ZM321.147 100.296H317.147C317.147 106.078 318.98 111.251 323.194 114.904C327.316 118.476 333.133 120.083 340.093 120.083V116.083V112.083C334.236 112.083 330.581 110.719 328.434 108.858C326.38 107.078 325.147 104.358 325.147 100.296H321.147ZM340.093 116.083V120.083H403.614V116.083V112.083H340.093V116.083ZM403.614 116.083H399.614V138H403.614H407.614V116.083H403.614ZM403.614 138V134H340.093V138V142H403.614V138ZM340.093 138V134C325.845 134 316.496 130.483 310.74 125.263C305.037 120.09 302.302 112.738 302.302 103.825H298.302H294.302C294.302 114.414 297.603 124.149 305.366 131.189C313.076 138.18 324.622 142 340.093 142V138ZM298.302 103.825H302.302C302.302 97.2856 303.783 92.0761 306.364 88.0285C308.937 83.9941 312.76 80.8653 317.865 78.7243L316.318 75.0355L314.771 71.3468C308.361 74.0349 303.176 78.1498 299.619 83.7272C296.071 89.2915 294.302 96.062 294.302 103.825H298.302ZM316.318 75.0355L317.844 71.338C312.673 69.2038 308.959 66.0926 306.504 62.1489C304.033 58.1795 302.673 53.1019 302.673 46.8037H298.673H294.673C294.673 54.25 296.286 60.8737 299.712 66.3769C303.154 71.9056 308.263 76.0382 314.792 78.733L316.318 75.0355ZM298.673 46.8037H302.673C302.673 37.621 305.494 30.286 311.242 25.1856C317.061 20.0216 326.464 16.6283 340.65 16.6283V12.6283V8.6283C325.304 8.6283 313.718 12.2929 305.932 19.2018C298.075 26.1742 294.673 35.9269 294.673 46.8037H298.673ZM429.87 12.6283V8.6283H425.87V12.6283H429.87ZM511.593 87.8513L510.509 84.001L505.541 85.3999L508.136 89.862L511.593 87.8513ZM540.754 138V142H547.707L544.212 135.989L540.754 138ZM516.423 138L512.978 140.033L514.138 142H516.423V138ZM487.819 89.5229L491.264 87.4902L490.103 85.5229H487.819V89.5229ZM451.972 138V142H455.972V138H451.972ZM430.055 138H426.055V142H430.055V138ZM429.87 34.5451H425.87V38.5451H429.87V34.5451ZM429.87 12.6283V16.6283H497.849V12.6283V8.6283H429.87V12.6283ZM497.849 12.6283V16.6283C511.111 16.6283 520.051 20.7036 525.692 26.6244C531.375 32.5897 534.154 40.8947 534.154 50.1469H538.154H542.154C542.154 39.3397 538.896 28.8853 531.484 21.1062C524.031 13.2826 512.818 8.6283 497.849 8.6283V12.6283ZM538.154 50.1469H534.154C534.154 64.5933 527.372 79.2533 510.509 84.001L511.593 87.8513L512.677 91.7016C534.077 85.6766 542.154 66.9042 542.154 50.1469H538.154ZM511.593 87.8513L508.136 89.862L537.296 140.011L540.754 138L544.212 135.989L515.051 85.8406L511.593 87.8513ZM540.754 138V134H516.423V138V142H540.754V138ZM516.423 138L519.868 135.967L491.264 87.4902L487.819 89.5229L484.374 91.5556L512.978 140.033L516.423 138ZM487.819 89.5229V85.5229H455.13V89.5229V93.5229H487.819V89.5229ZM455.13 89.5229V85.5229C453.583 85.5229 451.597 85.8668 450.02 87.3753C448.409 88.9165 447.972 90.9508 447.972 92.6805H451.972H455.972C455.972 92.4427 456.004 92.4221 455.965 92.5364C455.918 92.6748 455.797 92.9201 455.55 93.1564C455.041 93.6434 454.633 93.5229 455.13 93.5229V89.5229ZM451.972 92.6805H447.972V138H451.972H455.972V92.6805H451.972ZM451.972 138V134H430.055V138V142H451.972V138ZM430.055 138H434.055V88.4085H430.055H426.055V138H430.055ZM430.055 88.4085H434.055C434.055 81.7941 435.466 78.1146 437.574 76.0066C439.681 73.8997 443.312 72.5348 449.743 72.5348V68.5348V64.5348C442.43 64.5348 436.218 66.0487 431.917 70.3498C427.617 74.6497 426.055 80.907 426.055 88.4085H430.055ZM449.743 68.5348V72.5348H498.592V68.5348V64.5348H449.743V68.5348ZM498.592 68.5348V72.5348C505.804 72.5348 511.34 70.0157 515.014 65.7641C518.604 61.6105 520.051 56.2316 520.051 51.0756H516.051H512.051C512.051 54.835 510.991 58.1856 508.962 60.5328C507.018 62.782 503.824 64.5348 498.592 64.5348V68.5348ZM516.051 51.0756H520.051C520.051 45.8362 518.463 40.6372 514.754 36.718C511.002 32.7521 505.504 30.5451 498.592 30.5451V34.5451V38.5451C503.753 38.5451 506.984 40.1457 508.943 42.2162C510.946 44.3334 512.051 47.3997 512.051 51.0756H516.051ZM498.592 34.5451V30.5451H429.87V34.5451V38.5451H498.592V34.5451ZM429.87 34.5451H433.87V12.6283H429.87H425.87V34.5451H429.87ZM598.791 12.6283V8.6283H594.791V12.6283H598.791ZM694.073 12.6283H698.073V8.6283H694.073V12.6283ZM694.073 34.5451V38.5451H698.073V34.5451H694.073ZM657.483 34.5451V30.5451H653.483V34.5451H657.483ZM657.483 138V142H661.483V138H657.483ZM635.381 138H631.381V142H635.381V138ZM635.381 34.5451H639.381V30.5451H635.381V34.5451ZM598.791 34.5451H594.791V38.5451H598.791V34.5451ZM598.791 12.6283V16.6283H694.073V12.6283V8.6283H598.791V12.6283ZM694.073 12.6283H690.073V34.5451H694.073H698.073V12.6283H694.073ZM694.073 34.5451V30.5451H657.483V34.5451V38.5451H694.073V34.5451ZM657.483 34.5451H653.483V138H657.483H661.483V34.5451H657.483ZM657.483 138V134H635.381V138V142H657.483V138ZM635.381 138H639.381V34.5451H635.381H631.381V138H635.381ZM635.381 34.5451V30.5451H598.791V34.5451V38.5451H635.381V34.5451ZM598.791 34.5451H602.791V12.6283H598.791H594.791V34.5451H598.791ZM812.998 12.6283H816.998V8.6283H812.998V12.6283ZM812.998 34.5451V38.5451H816.998V34.5451H812.998ZM812.069 65.1915H816.069V61.1915H812.069V65.1915ZM812.069 85.0653V89.0653H816.069V85.0653H812.069ZM813.184 116.083H817.184V112.083H813.184V116.083ZM813.184 138V142H817.184V138H813.184ZM725.888 75.0355L727.435 78.7243L736.301 75.006L727.414 71.338L725.888 75.0355ZM750.219 12.6283V16.6283H812.998V12.6283V8.6283H750.219V12.6283ZM812.998 12.6283H808.998V34.5451H812.998H816.998V12.6283H812.998ZM812.998 34.5451V30.5451H750.219V34.5451V38.5451H812.998V34.5451ZM750.219 34.5451V30.5451C743.074 30.5451 737.233 32.1999 733.147 35.8249C728.98 39.5215 727.274 44.696 727.274 50.3327H731.274H735.274C735.274 46.3111 736.447 43.5919 738.456 41.8092C740.546 39.955 744.177 38.5451 750.219 38.5451V34.5451ZM731.274 50.3327H727.274C727.274 56.3559 729.244 61.4005 733.681 64.7762C737.9 67.9859 743.724 69.1915 750.405 69.1915V65.1915V61.1915C744.456 61.1915 740.715 60.0755 738.525 58.4096C736.554 56.9098 735.274 54.5249 735.274 50.3327H731.274ZM750.405 65.1915V69.1915H812.069V65.1915V61.1915H750.405V65.1915ZM812.069 65.1915H808.069V85.0653H812.069H816.069V65.1915H812.069ZM812.069 85.0653V81.0653H749.848V85.0653V89.0653H812.069V85.0653ZM749.848 85.0653V81.0653C743.109 81.0653 737.277 82.3853 733.067 85.7107C728.678 89.1768 726.717 94.281 726.717 100.296H730.717H734.717C734.717 96.0947 736.006 93.5838 738.025 91.9886C740.223 90.2527 743.956 89.0653 749.848 89.0653V85.0653ZM730.717 100.296H726.717C726.717 106.078 728.549 111.251 732.764 114.904C736.885 118.476 742.703 120.083 749.662 120.083V116.083V112.083C743.805 112.083 740.15 110.719 738.003 108.858C735.949 107.078 734.717 104.358 734.717 100.296H730.717ZM749.662 116.083V120.083H813.184V116.083V112.083H749.662V116.083ZM813.184 116.083H809.184V138H813.184H817.184V116.083H813.184ZM813.184 138V134H749.662V138V142H813.184V138ZM749.662 138V134C735.415 134 726.066 130.483 720.31 125.263C714.606 120.09 711.871 112.738 711.871 103.825H707.871H703.871C703.871 114.414 707.173 124.149 714.935 131.189C722.645 138.18 734.191 142 749.662 142V138ZM707.871 103.825H711.871C711.871 97.2856 713.353 92.0761 715.934 88.0285C718.506 83.9941 722.329 80.8653 727.435 78.7243L725.888 75.0355L724.341 71.3468C717.931 74.0349 712.745 78.1498 709.188 83.7272C705.64 89.2915 703.871 96.062 703.871 103.825H707.871ZM725.888 75.0355L727.414 71.338C722.242 69.2038 718.528 66.0926 716.073 62.1489C713.602 58.1795 712.243 53.1019 712.243 46.8037H708.243H704.243C704.243 54.25 705.855 60.8737 709.281 66.3769C712.723 71.9056 717.832 76.0382 724.362 78.733L725.888 75.0355ZM708.243 46.8037H712.243C712.243 37.621 715.064 30.286 720.811 25.1856C726.631 20.0216 736.033 16.6283 750.219 16.6283V12.6283V8.6283C734.873 8.6283 723.287 12.2929 715.502 19.2018C707.644 26.1742 704.243 35.9269 704.243 46.8037H708.243ZM892.002 37.1454L888.338 35.5421L888.308 35.6099L888.281 35.6788L892.002 37.1454ZM852.255 138V142H854.978L855.976 139.467L852.255 138ZM828.109 138L824.389 136.53L822.228 142H828.109V138ZM872.129 26.5585L868.411 25.0831L868.408 25.089L872.129 26.5585ZM924.506 26.5585L928.245 25.1376L928.244 25.1345L924.506 26.5585ZM966.854 138V142H972.653L970.593 136.579L966.854 138ZM942.522 138L938.78 139.413L939.757 142H942.522V138ZM904.447 37.1454L900.701 38.5499L900.704 38.5582L904.447 37.1454ZM892.002 37.1454L888.281 35.6788L848.533 136.533L852.255 138L855.976 139.467L895.724 38.6121L892.002 37.1454ZM852.255 138V134H828.109V138V142H852.255V138ZM828.109 138L831.829 139.47L875.849 28.028L872.129 26.5585L868.408 25.089L824.389 136.53L828.109 138ZM872.129 26.5585L875.846 28.0339C877.906 22.8435 880.685 19.5787 884.146 17.5354C887.678 15.4495 892.324 14.3995 898.503 14.3995V10.3995V6.39946C891.495 6.39946 885.275 7.57828 880.078 10.6465C874.809 13.7574 870.994 18.5722 868.411 25.0831L872.129 26.5585ZM898.503 10.3995V14.3995C904.584 14.3995 909.176 15.4475 912.659 17.5258C916.067 19.56 918.798 22.8108 920.768 27.9825L924.506 26.5585L928.244 25.1345C925.756 18.6048 921.986 13.7761 916.758 10.6561C911.604 7.58029 905.424 6.39946 898.503 6.39946V10.3995ZM924.506 26.5585L920.767 27.9794L963.115 139.421L966.854 138L970.593 136.579L928.245 25.1376L924.506 26.5585ZM966.854 138V134H942.522V138V142H966.854V138ZM942.522 138L946.265 136.587L908.189 35.7326L904.447 37.1454L900.704 38.5582L938.78 139.413L942.522 138ZM904.447 37.1454L908.192 35.7409C907.416 33.6719 906.184 31.8532 904.332 30.5901C902.486 29.3318 900.389 28.8735 898.317 28.8735V32.8735V36.8735C899.217 36.8735 899.628 37.0653 899.825 37.2C900.016 37.3299 900.363 37.6472 900.701 38.5499L904.447 37.1454ZM898.317 32.8735V28.8735C896.234 28.8735 894.16 29.3363 892.314 30.5668C890.478 31.7907 889.211 33.5461 888.338 35.5421L892.002 37.1454L895.667 38.7487C896.094 37.773 896.498 37.3924 896.752 37.2233C896.995 37.0607 897.428 36.8735 898.317 36.8735V32.8735ZM1005.33 138V142H1009.33V138H1005.33ZM983.418 138H979.418V142H983.418V138ZM1040.62 33.6164L1036.82 34.8517L1036.85 34.9461L1036.89 35.039L1040.62 33.6164ZM1071.08 113.669L1067.35 115.091L1067.37 115.142L1067.39 115.192L1071.08 113.669ZM1142.04 33.6164L1138.26 34.94L1138.27 34.9755L1138.29 35.0107L1142.04 33.6164ZM1180.85 138V142H1186.61L1184.6 136.606L1180.85 138ZM1157.27 138L1153.51 139.386L1154.48 142H1157.27V138ZM1119.93 36.9597L1123.69 35.5733L1123.66 35.5045L1123.63 35.4367L1119.93 36.9597ZM1049.17 117.012L1052.96 115.732L1052.93 115.66L1052.91 115.589L1049.17 117.012ZM1018.71 36.9597L1022.45 35.5371L1022.43 35.4866L1022.41 35.4367L1018.71 36.9597ZM1005.33 38.817H1001.33V138H1005.33H1009.33V38.817H1005.33ZM1005.33 138V134H983.418V138V142H1005.33V138ZM983.418 138H987.418V37.7026H983.418H979.418V138H983.418ZM983.418 37.7026H987.418C987.418 30.2481 989.485 24.5361 993.19 20.7009C996.87 16.8916 1002.68 14.3995 1011.28 14.3995V10.3995V6.39946C1001.12 6.39946 992.997 9.38652 987.436 15.1426C981.901 20.8728 979.418 28.8124 979.418 37.7026H983.418ZM1011.28 10.3995V14.3995C1018.87 14.3995 1024.06 16.4018 1027.87 19.6765C1031.76 23.0262 1034.61 28.0584 1036.82 34.8517L1040.62 33.6164L1044.43 32.3812C1041.99 24.8728 1038.53 18.2966 1033.09 13.6131C1027.56 8.85475 1020.4 6.39946 1011.28 6.39946V10.3995ZM1040.62 33.6164L1036.89 35.039L1067.35 115.091L1071.08 113.669L1074.82 112.246L1044.36 32.1939L1040.62 33.6164ZM1071.08 113.669L1067.39 115.192C1069.14 119.458 1072.8 122.869 1078.14 122.869V118.869V114.869C1076.8 114.869 1075.63 114.194 1074.78 112.146L1071.08 113.669ZM1078.14 118.869V122.869C1081.04 122.869 1083.74 121.764 1085.7 119.687C1087.65 117.619 1088.64 114.829 1088.64 111.811H1084.64H1080.64C1080.64 113.065 1080.25 113.804 1079.88 114.197C1079.51 114.581 1078.96 114.869 1078.14 114.869V118.869ZM1084.64 111.811H1088.64V37.7026H1084.64H1080.64V111.811H1084.64ZM1084.64 37.7026H1088.64C1088.64 30.2478 1090.71 24.531 1094.4 20.6936C1098.06 16.885 1103.83 14.3995 1112.32 14.3995V10.3995V6.39946C1102.24 6.39946 1094.17 9.3931 1088.63 15.1499C1083.13 20.878 1080.64 28.8127 1080.64 37.7026H1084.64ZM1112.32 10.3995V14.3995C1119.91 14.3995 1125.11 16.3994 1128.97 19.6893C1132.92 23.0587 1135.87 28.1167 1138.26 34.94L1142.04 33.6164L1145.81 32.2929C1143.19 24.8146 1139.63 18.264 1134.16 13.6004C1128.59 8.85715 1121.44 6.39946 1112.32 6.39946V10.3995ZM1142.04 33.6164L1138.29 35.0107L1177.11 139.394L1180.85 138L1184.6 136.606L1145.79 32.2222L1142.04 33.6164ZM1180.85 138V134H1157.27V138V142H1180.85V138ZM1157.27 138L1161.02 136.614L1123.69 35.5733L1119.93 36.9597L1116.18 38.346L1153.51 139.386L1157.27 138ZM1119.93 36.9597L1123.63 35.4367C1121.94 31.3298 1118.36 27.5733 1112.88 27.5733V31.5733V35.5733C1114.08 35.5733 1115.33 36.2745 1116.23 38.4827L1119.93 36.9597ZM1112.88 31.5733V27.5733C1109.96 27.5733 1107.26 28.6963 1105.34 30.8661C1103.44 32.9971 1102.56 35.8218 1102.56 38.817H1106.56H1110.56C1110.56 37.3547 1110.98 36.5575 1111.31 36.181C1111.61 35.8434 1112.07 35.5733 1112.88 35.5733V31.5733ZM1106.56 38.817H1102.56V112.74H1106.56H1110.56V38.817H1106.56ZM1106.56 112.74H1102.56C1102.56 120.258 1100.42 126.024 1096.66 129.897C1092.92 133.748 1087.09 136.229 1078.7 136.229V140.229V144.229C1088.7 144.229 1096.8 141.231 1102.4 135.47C1107.97 129.731 1110.56 121.753 1110.56 112.74H1106.56ZM1078.7 140.229V136.229C1071.21 136.229 1066.01 134.233 1062.14 130.939C1058.19 127.573 1055.25 122.521 1052.96 115.732L1049.17 117.012L1045.38 118.292C1047.92 125.804 1051.48 132.361 1056.95 137.028C1062.51 141.767 1069.66 144.229 1078.7 144.229V140.229ZM1049.17 117.012L1052.91 115.589L1022.45 35.5371L1018.71 36.9597L1014.97 38.3822L1045.43 118.434L1049.17 117.012ZM1018.71 36.9597L1022.41 35.4367C1020.74 31.395 1017.19 27.5733 1011.84 27.5733V31.5733V35.5733C1012.8 35.5733 1014.07 36.2094 1015.01 38.4827L1018.71 36.9597ZM1011.84 31.5733V27.5733C1008.88 27.5733 1006.14 28.6562 1004.16 30.8356C1002.22 32.9778 1001.33 35.8217 1001.33 38.817H1005.33H1009.33C1009.33 37.3548 1009.75 36.5768 1010.08 36.2115C1010.38 35.8835 1010.89 35.5733 1011.84 35.5733V31.5733Z" fill="#F8F8F7" mask="url(#path-3-outside-2_251_30102)"/>
</g>
<defs>
<clipPath id="clip0_251_30102">
<rect width="1243" height="149" fill="white"/>
</clipPath>
</defs>
</svg>
